<svg width="723" height="390" viewBox="0 0 723 390" fill="none" xmlns="http://www.w3.org/2000/svg">
<g clip-path="url(#clip0_1_79)">
<path d="M45.7953 325.716L43.5401 337.023C43.3702 337.888 43.1925 338.767 42.9995 339.64C41.1146 339.249 39.1602 339.358 37.3306 339.956C38.7822 342.029 40.083 344.203 41.2231 346.463C39.802 350.839 37.7167 354.883 34.2258 357.808C31.8943 359.719 29.1095 360.996 26.1402 361.518C23.1708 362.04 20.117 361.788 17.2732 360.788L17.3736 360.34C13.6201 353.062 15.6591 343.885 20.3239 337.162C22.7032 333.845 25.5222 330.867 28.7037 328.309C31.8547 325.685 35.2607 323.331 38.6358 321.008C39.3938 320.487 40.2901 320.203 41.21 320.194C42.1299 320.185 43.0318 320.45 43.8003 320.955C44.5688 321.46 45.1691 322.183 45.5245 323.031C45.8798 323.879 45.9741 324.814 45.7953 325.716Z" fill="#E4E4E4"/>
<path d="M18.0763 387.994C17.1271 381.084 16.1509 374.086 16.8166 367.102C17.4082 360.9 19.3012 354.841 23.1567 349.874C25.203 347.242 27.6929 344.987 30.5146 343.211C31.2507 342.748 31.9272 343.912 31.195 344.374C26.313 347.457 22.5368 352.011 20.411 357.377C18.0632 363.345 17.6863 369.85 18.0941 376.189C18.3389 380.023 18.8571 383.83 19.38 387.636C19.4221 387.808 19.3968 387.989 19.3092 388.144C19.2216 388.298 19.0784 388.412 18.9089 388.464C18.7364 388.511 18.5526 388.488 18.3973 388.399C18.242 388.311 18.1277 388.166 18.0794 387.994L18.0763 387.994Z" fill="#F2F2F2"/>
<path d="M26.2223 41.396C59.3067 40.821 92.3946 40.7385 125.486 41.1482C158.573 41.5604 191.649 42.467 224.713 43.8682C243.267 44.6546 261.813 45.5966 280.352 46.6943C281.842 46.7823 281.836 44.4666 280.352 44.3788C247.321 42.4255 214.265 40.9638 181.185 39.994C148.11 39.0267 115.025 38.554 81.9309 38.5759C63.3603 38.5883 44.7908 38.7565 26.2223 39.0805C24.733 39.1064 24.7283 41.4219 26.2223 41.396V41.396Z" fill="#E6E6E6"/>
<path d="M256.789 26.8773L271.256 25.8013C272.734 25.6913 272.746 23.375 271.256 23.4858L256.789 24.5618C255.312 24.6717 255.3 26.9881 256.789 26.8773Z" fill="#E6E6E6"/>
<path d="M256.789 40.7703L271.256 39.6943C272.734 39.5844 272.746 37.268 271.256 37.3789L256.789 38.4549C255.312 38.5648 255.3 40.8812 256.789 40.7703Z" fill="#E6E6E6"/>
<path d="M255.701 34.4256L276.27 36.2931C277.754 36.4278 277.745 34.1115 276.27 33.9776L255.701 32.1101C254.217 31.9754 254.226 34.2917 255.701 34.4256Z" fill="#E6E6E6"/>
<path d="M34.784 23.7635C33.7779 23.7573 32.7923 24.0472 31.95 24.5969C31.1077 25.1467 30.4459 25.932 30.0472 26.8551C29.6011 27.7585 29.4634 28.7831 29.6551 29.7721C29.8469 30.7612 30.3575 31.6602 31.1088 32.3318C31.8152 32.9324 32.6623 33.3442 33.5712 33.5287C34.48 33.7132 35.4208 33.6644 36.3056 33.3869C37.2106 33.0711 37.9953 32.4827 38.5518 31.7027C39.1082 30.9228 39.4091 29.9897 39.413 29.0318C39.4534 27.969 39.1653 26.9196 38.5879 26.0263C38.0105 25.133 37.1718 24.439 36.1858 24.0388C35.8896 23.9584 35.5735 23.9983 35.3066 24.1497C35.0396 24.3012 34.8434 24.552 34.7607 24.8474C34.6876 25.1432 34.7308 25.4557 34.8813 25.7206C35.0318 25.9855 35.2783 26.1827 35.5698 26.2716C35.7718 26.3495 35.3854 26.1724 35.5739 26.275C35.6514 26.3172 35.7304 26.3554 35.8065 26.4004C35.8712 26.4387 35.9332 26.4807 35.9961 26.5217C36.2124 26.6628 35.8906 26.4182 36.0288 26.545C36.1487 26.6549 36.2674 26.7622 36.3764 26.8836C36.4176 26.9294 36.579 27.057 36.4536 26.9678C36.3576 26.8996 36.4165 26.9157 36.4535 26.9704C36.4816 27.012 36.5113 27.0525 36.539 27.0943C36.6293 27.2309 36.7114 27.3727 36.7849 27.5191C36.8019 27.5529 36.8175 27.5876 36.8348 27.6213C36.8672 27.6844 36.9142 27.701 36.838 27.6219C36.7651 27.5463 36.8115 27.5515 36.8376 27.6242C36.8547 27.672 36.8734 27.7192 36.8901 27.7671C36.9444 27.9233 36.99 28.0824 37.0267 28.2436C37.0437 28.3181 37.0573 28.3931 37.0719 28.4681C37.1236 28.7339 37.0644 28.3028 37.0769 28.5003C37.0873 28.6652 37.0995 28.8283 37.0966 28.9938C37.0953 29.0696 37.092 29.1453 37.0867 29.2208C37.0841 29.2585 37.0799 29.2961 37.0774 29.3338C37.0654 29.5155 37.065 29.2674 37.0904 29.2505C37.0375 29.4047 37.0023 29.5645 36.9857 29.7267C36.965 29.7986 36.9403 29.8691 36.9172 29.9403C36.8366 30.1886 36.9929 29.8048 36.907 29.9746C36.8363 30.1205 36.7573 30.2621 36.6703 30.3989C36.6326 30.4562 36.4903 30.5856 36.6066 30.4955C36.7329 30.3978 36.5404 30.5661 36.4993 30.6094C36.4466 30.665 36.3918 30.7187 36.335 30.7704C36.2987 30.8059 36.2603 30.8392 36.2201 30.8702C36.2128 30.8665 36.4137 30.7361 36.3054 30.8052C36.1677 30.8929 36.0374 30.9868 35.8923 31.0631C35.8755 31.072 35.69 31.1579 35.6908 31.1609C35.6828 31.1297 35.9292 31.0742 35.76 31.1289C35.7245 31.1403 35.6897 31.1542 35.6543 31.1661C35.5003 31.2179 35.3431 31.2598 35.1837 31.2914C35.1472 31.2986 35.1086 31.3023 35.0726 31.3116C34.9529 31.3426 35.1871 31.2935 35.1941 31.2975C35.1056 31.2937 35.0169 31.3015 34.9305 31.3208C34.7661 31.3302 34.6013 31.3302 34.4369 31.3208C34.3989 31.3186 34.361 31.3148 34.3229 31.3126C34.2347 31.3075 34.1699 31.2439 34.2874 31.3129C34.378 31.3662 34.3705 31.3273 34.2902 31.3125C34.2526 31.3056 34.2149 31.2997 34.1773 31.2927C34.0146 31.2623 33.8538 31.2229 33.6954 31.1747C33.6102 31.1488 33.5267 31.1186 33.4426 31.0892C33.406 31.0786 33.3704 31.0649 33.3361 31.0482C33.3356 31.0387 33.5527 31.1519 33.4381 31.0902C33.2934 31.0122 33.1437 30.9469 33.0024 30.8617C32.927 30.8163 32.8546 30.7668 32.7813 30.7182C32.749 30.6988 32.7183 30.6768 32.6896 30.6526C32.692 30.6428 32.8692 30.8069 32.7762 30.7183C32.6585 30.6062 32.5327 30.506 32.4213 30.3867C32.3958 30.3594 32.3717 30.3308 32.3463 30.3035L32.3217 30.2754C32.2589 30.1987 32.2578 30.1991 32.3183 30.2765C32.3796 30.2946 32.3769 30.3619 32.3186 30.2745C32.2978 30.2433 32.2758 30.213 32.255 30.1818C32.161 30.0479 32.0807 29.9047 32.0156 29.7545C32.0212 29.7501 32.1159 30.0331 32.0435 29.8195C32.0298 29.7792 32.0144 29.7395 32.001 29.6991C31.9744 29.6189 31.951 29.5378 31.9308 29.4558C31.9107 29.3745 31.9005 29.2907 31.8803 29.2099C31.8462 29.0735 31.9001 29.3174 31.894 29.3113C31.8747 29.2923 31.8829 29.174 31.8815 29.1457C31.8722 28.9641 31.8929 28.7878 31.8961 28.6072C31.8987 28.4673 31.8846 28.7162 31.8816 28.7089C31.8823 28.667 31.8898 28.6255 31.9036 28.5859C31.9246 28.4907 31.9441 28.3956 31.9698 28.3014C31.9992 28.1936 32.033 28.087 32.0713 27.9819C32.0856 27.9425 32.1031 27.9037 32.1164 27.864C32.1651 27.7186 32.0198 28.0396 32.0999 27.9085C32.2102 27.7281 32.2923 27.533 32.4093 27.3548C32.437 27.3126 32.6056 27.0774 32.5161 27.1961C32.427 27.3144 32.6077 27.0902 32.6419 27.0522C32.784 26.894 32.9511 26.7642 33.0983 26.6128C33.1853 26.5232 33.0375 26.6569 33.0287 26.6632C33.0743 26.6306 33.1189 26.5969 33.1651 26.5651C33.2455 26.5097 33.3279 26.4573 33.4123 26.408C33.5073 26.3523 33.6148 26.3108 33.7069 26.2519C33.8157 26.1823 33.6237 26.2825 33.6202 26.2846C33.6699 26.2599 33.7219 26.2401 33.7754 26.2254C33.8651 26.1936 34.2553 26.0254 34.3371 26.078C34.3334 26.0756 34.0409 26.1016 34.2774 26.0864C34.3332 26.0828 34.3889 26.0773 34.4449 26.075C34.5581 26.0703 34.6709 26.0732 34.784 26.079C35.0906 26.077 35.3841 25.9544 35.6009 25.7377C35.8178 25.521 35.9405 25.2277 35.9425 24.9213C35.9359 24.6163 35.8118 24.3256 35.5959 24.1099C35.3801 23.8942 35.0892 23.7701 34.784 23.7636L34.784 23.7635Z" fill="#E6E6E6"/>
<path d="M51.0028 23.7635C49.9968 23.7573 49.0112 24.0472 48.1689 24.5969C47.3265 25.1467 46.6648 25.932 46.266 26.8551C45.82 27.7585 45.6823 28.7831 45.874 29.7721C46.0657 30.7612 46.5763 31.6602 47.3277 32.3318C48.034 32.9324 48.8812 33.3442 49.79 33.5287C50.6989 33.7132 51.6397 33.6644 52.5245 33.3869C53.4294 33.0711 54.2141 32.4827 54.7706 31.7027C55.3271 30.9228 55.628 29.9897 55.6319 29.0318C55.6723 27.969 55.3842 26.9196 54.8068 26.0263C54.2294 25.133 53.3906 24.439 52.4047 24.0388C52.1084 23.9584 51.7924 23.9983 51.5254 24.1497C51.2585 24.3012 51.0623 24.552 50.9796 24.8474C50.9065 25.1432 50.9497 25.4557 51.1002 25.7206C51.2507 25.9855 51.4971 26.1827 51.7887 26.2716C51.9906 26.3495 51.6043 26.1724 51.7928 26.275C51.8703 26.3172 51.9493 26.3554 52.0254 26.4004C52.0901 26.4387 52.1521 26.4807 52.215 26.5217C52.4313 26.6628 52.1094 26.4182 52.2477 26.545C52.3675 26.6549 52.4863 26.7622 52.5952 26.8836C52.6365 26.9294 52.7979 27.057 52.6724 26.9678C52.5765 26.8996 52.6354 26.9157 52.6724 26.9704C52.7005 27.012 52.7301 27.0525 52.7579 27.0943C52.8482 27.2309 52.9303 27.3727 53.0037 27.5191C53.0208 27.5529 53.0363 27.5876 53.0536 27.6213C53.0861 27.6844 53.1331 27.701 53.0568 27.6219C52.984 27.5463 53.0304 27.5515 53.0564 27.6242C53.0736 27.672 53.0923 27.7192 53.109 27.7671C53.1633 27.9233 53.2089 28.0824 53.2455 28.2436C53.2625 28.3181 53.2762 28.3931 53.2908 28.4681C53.3425 28.7339 53.2833 28.3028 53.2957 28.5003C53.3062 28.6652 53.3184 28.8283 53.3155 28.9938C53.3142 29.0696 53.3109 29.1453 53.3056 29.2208C53.3029 29.2585 53.2987 29.2961 53.2962 29.3338C53.2842 29.5155 53.2838 29.2674 53.3093 29.2505C53.2563 29.4047 53.2212 29.5645 53.2046 29.7267C53.1838 29.7986 53.1592 29.8691 53.1361 29.9403C53.0555 30.1886 53.2118 29.8048 53.1259 29.9746C53.0552 30.1205 52.9762 30.2621 52.8892 30.3989C52.8515 30.4562 52.7091 30.5856 52.8255 30.4955C52.9518 30.3978 52.7593 30.5661 52.7182 30.6094C52.6654 30.665 52.6107 30.7187 52.5539 30.7704C52.5176 30.8059 52.4792 30.8392 52.439 30.8702C52.4317 30.8665 52.6326 30.7361 52.5243 30.8052C52.3866 30.8929 52.2563 30.9868 52.1112 31.0631C52.0943 31.072 51.9089 31.1579 51.9096 31.1609C51.9016 31.1297 52.1481 31.0742 51.9789 31.1289C51.9434 31.1403 51.9085 31.1542 51.8731 31.1661C51.7191 31.2179 51.5619 31.2598 51.4025 31.2914C51.366 31.2986 51.3275 31.3023 51.2915 31.3116C51.1717 31.3426 51.4059 31.2935 51.413 31.2975C51.3245 31.2937 51.2358 31.3015 51.1493 31.3208C50.985 31.3302 50.8202 31.3302 50.6558 31.3208C50.6178 31.3186 50.5798 31.3148 50.5418 31.3126C50.4535 31.3075 50.3888 31.2439 50.5062 31.3129C50.5969 31.3662 50.5893 31.3273 50.509 31.3125C50.4715 31.3056 50.4338 31.2997 50.3962 31.2927C50.2335 31.2623 50.0726 31.2229 49.9143 31.1747C49.8291 31.1488 49.7456 31.1186 49.6615 31.0892C49.6249 31.0786 49.5892 31.0649 49.5549 31.0482C49.5544 31.0387 49.7716 31.1519 49.6569 31.0902C49.5122 31.0122 49.3626 30.9469 49.2213 30.8617C49.1459 30.8163 49.0734 30.7668 49.0001 30.7182C48.9679 30.6988 48.9372 30.6768 48.9084 30.6526C48.9109 30.6428 49.088 30.8069 48.995 30.7183C48.8774 30.6062 48.7516 30.506 48.6402 30.3867C48.6147 30.3594 48.5906 30.3308 48.5652 30.3035L48.5406 30.2754C48.4778 30.1987 48.4767 30.1991 48.5371 30.2765C48.5985 30.2946 48.5957 30.3619 48.5375 30.2745C48.5167 30.2433 48.4946 30.213 48.4739 30.1818C48.3798 30.0479 48.2996 29.9047 48.2345 29.7545C48.2401 29.7501 48.3348 30.0331 48.2624 29.8195C48.2487 29.7792 48.2333 29.7395 48.2199 29.6991C48.1933 29.6189 48.1699 29.5378 48.1496 29.4558C48.1296 29.3745 48.1193 29.2907 48.0991 29.2099C48.0651 29.0735 48.119 29.3174 48.1129 29.3113C48.0936 29.2923 48.1018 29.174 48.1003 29.1457C48.0911 28.9641 48.1118 28.7878 48.115 28.6072C48.1175 28.4673 48.1034 28.7162 48.1005 28.7089C48.1012 28.667 48.1086 28.6255 48.1225 28.5859C48.1435 28.4907 48.163 28.3956 48.1887 28.3014C48.2181 28.1936 48.2519 28.087 48.2902 27.9819C48.3045 27.9425 48.3219 27.9037 48.3352 27.864C48.384 27.7186 48.2387 28.0396 48.3188 27.9085C48.429 27.7281 48.5111 27.533 48.6281 27.3548C48.6559 27.3126 48.8245 27.0774 48.735 27.1961C48.6459 27.3144 48.8266 27.0902 48.8608 27.0522C49.0029 26.894 49.17 26.7642 49.3171 26.6128C49.4042 26.5232 49.2563 26.6569 49.2476 26.6632C49.2932 26.6306 49.3378 26.5969 49.3839 26.5651C49.4644 26.5097 49.5468 26.4573 49.6311 26.408C49.7262 26.3523 49.8336 26.3108 49.9258 26.2519C50.0346 26.1823 49.8425 26.2825 49.8391 26.2846C49.8888 26.2599 49.9408 26.2401 49.9943 26.2254C50.084 26.1936 50.4741 26.0254 50.556 26.078C50.5523 26.0756 50.2597 26.1016 50.4962 26.0864C50.5521 26.0828 50.6078 26.0773 50.6637 26.075C50.777 26.0703 50.8898 26.0732 51.0029 26.079C51.3095 26.077 51.603 25.9544 51.8198 25.7377C52.0366 25.521 52.1593 25.2277 52.1614 24.9213C52.1548 24.6163 52.0306 24.3256 51.8148 24.1099C51.5989 23.8942 51.3081 23.7701 51.0029 23.7636L51.0028 23.7635Z" fill="#E6E6E6"/>
<path d="M67.2217 23.7635C66.2157 23.7573 65.2301 24.0472 64.3877 24.5969C63.5454 25.1467 62.8836 25.932 62.4849 26.8551C62.0389 27.7585 61.9012 28.7831 62.0929 29.7721C62.2846 30.7612 62.7952 31.6602 63.5466 32.3318C64.2529 32.9324 65.1001 33.3442 66.0089 33.5287C66.9177 33.7132 67.8585 33.6644 68.7434 33.3869C69.6483 33.0711 70.433 32.4827 70.9895 31.7027C71.546 30.9228 71.8469 29.9897 71.8507 29.0318C71.8912 27.969 71.6031 26.9196 71.0257 26.0263C70.4482 25.133 69.6095 24.439 68.6235 24.0388C68.3273 23.9584 68.0113 23.9983 67.7443 24.1497C67.4774 24.3012 67.2811 24.552 67.1985 24.8474C67.1254 25.1432 67.1686 25.4557 67.3191 25.7206C67.4696 25.9855 67.716 26.1827 68.0076 26.2716C68.2095 26.3495 67.8231 26.1724 68.0117 26.275C68.0892 26.3172 68.1682 26.3554 68.2443 26.4004C68.309 26.4387 68.3709 26.4807 68.4339 26.5217C68.6501 26.6628 68.3283 26.4182 68.4665 26.545C68.5864 26.6549 68.7052 26.7622 68.8141 26.8836C68.8553 26.9294 69.0167 27.057 68.8913 26.9678C68.7953 26.8996 68.8543 26.9157 68.8913 26.9704C68.9193 27.012 68.949 27.0525 68.9767 27.0943C69.067 27.2309 69.1492 27.3727 69.2226 27.5191C69.2396 27.5529 69.2552 27.5876 69.2725 27.6213C69.305 27.6844 69.352 27.701 69.2757 27.6219C69.2028 27.5463 69.2492 27.5515 69.2753 27.6242C69.2924 27.672 69.3112 27.7192 69.3278 27.7671C69.3822 27.9233 69.4278 28.0824 69.4644 28.2436C69.4814 28.3181 69.4951 28.3931 69.5096 28.4681C69.5614 28.7339 69.5021 28.3028 69.5146 28.5003C69.5251 28.6652 69.5372 28.8283 69.5344 28.9938C69.533 29.0696 69.5298 29.1453 69.5245 29.2208C69.5218 29.2585 69.5176 29.2961 69.5151 29.3338C69.5031 29.5155 69.5027 29.2674 69.5282 29.2505C69.4752 29.4047 69.4401 29.5645 69.4235 29.7267C69.4027 29.7986 69.3781 29.8691 69.355 29.9403C69.2744 30.1886 69.4307 29.8048 69.3448 29.9746C69.274 30.1205 69.195 30.2621 69.1081 30.3989C69.0703 30.4562 68.928 30.5856 69.0444 30.4955C69.1707 30.3978 68.9782 30.5661 68.9371 30.6094C68.8843 30.665 68.8296 30.7187 68.7728 30.7704C68.7365 30.8059 68.6981 30.8392 68.6579 30.8702C68.6505 30.8665 68.8514 30.7361 68.7432 30.8052C68.6055 30.8929 68.4752 30.9868 68.3301 31.0631C68.3132 31.072 68.1277 31.1579 68.1285 31.1609C68.1205 31.1297 68.3669 31.0742 68.1978 31.1289C68.1623 31.1403 68.1274 31.1542 68.092 31.1661C67.938 31.2179 67.7808 31.2598 67.6214 31.2914C67.5849 31.2986 67.5463 31.3023 67.5104 31.3116C67.3906 31.3426 67.6248 31.2935 67.6318 31.2975C67.5433 31.2937 67.4547 31.3015 67.3682 31.3208C67.2038 31.3302 67.0391 31.3302 66.8747 31.3208C66.8367 31.3186 66.7987 31.3148 66.7607 31.3126C66.6724 31.3075 66.6076 31.2439 66.7251 31.3129C66.8157 31.3662 66.8082 31.3273 66.7279 31.3125C66.6904 31.3056 66.6526 31.2997 66.6151 31.2927C66.4524 31.2623 66.2915 31.2229 66.1332 31.1747C66.0479 31.1488 65.9645 31.1186 65.8804 31.0892C65.8438 31.0786 65.8081 31.0649 65.7738 31.0482C65.7733 31.0387 65.9905 31.1519 65.8758 31.0902C65.7311 31.0122 65.5815 30.9469 65.4401 30.8617C65.3647 30.8163 65.2923 30.7668 65.219 30.7182C65.1867 30.6988 65.1561 30.6768 65.1273 30.6526C65.1297 30.6428 65.3069 30.8069 65.2139 30.7183C65.0963 30.6062 64.9705 30.506 64.8591 30.3867C64.8336 30.3594 64.8095 30.3308 64.7841 30.3035L64.7595 30.2754C64.6967 30.1987 64.6955 30.1991 64.756 30.2765C64.8174 30.2946 64.8146 30.3619 64.7563 30.2745C64.7356 30.2433 64.7135 30.213 64.6928 30.1818C64.5987 30.0479 64.5185 29.9047 64.4533 29.7545C64.459 29.7501 64.5537 30.0331 64.4813 29.8195C64.4676 29.7792 64.4522 29.7395 64.4388 29.6991C64.4122 29.6189 64.3887 29.5378 64.3685 29.4558C64.3485 29.3745 64.3382 29.2907 64.318 29.2099C64.284 29.0735 64.3379 29.3174 64.3317 29.3113C64.3124 29.2923 64.3206 29.174 64.3192 29.1457C64.3099 28.9641 64.3306 28.7878 64.3339 28.6072C64.3364 28.4673 64.3223 28.7162 64.3194 28.7089C64.3201 28.667 64.3275 28.6255 64.3414 28.5859C64.3623 28.4907 64.3819 28.3956 64.4075 28.3014C64.4369 28.1936 64.4708 28.087 64.5091 27.9819C64.5234 27.9425 64.5408 27.9037 64.5541 27.864C64.6029 27.7186 64.4576 28.0396 64.5377 27.9085C64.6479 27.7281 64.73 27.533 64.847 27.3548C64.8747 27.3126 65.0433 27.0774 64.9539 27.1961C64.8647 27.3144 65.0454 27.0902 65.0797 27.0522C65.2218 26.894 65.3889 26.7642 65.536 26.6128C65.6231 26.5232 65.4752 26.6569 65.4665 26.6632C65.5121 26.6306 65.5567 26.5969 65.6028 26.5651C65.6832 26.5097 65.7656 26.4573 65.85 26.408C65.9451 26.3523 66.0525 26.3108 66.1446 26.2519C66.2535 26.1823 66.0614 26.2825 66.058 26.2846C66.1077 26.2599 66.1596 26.2401 66.2132 26.2254C66.3029 26.1936 66.693 26.0254 66.7749 26.078C66.7712 26.0756 66.4786 26.1016 66.7151 26.0864C66.771 26.0828 66.8266 26.0773 66.8826 26.075C66.9958 26.0703 67.1086 26.0732 67.2217 26.079C67.5284 26.077 67.8219 25.9544 68.0387 25.7377C68.2555 25.521 68.3782 25.2277 68.3802 24.9213C68.3737 24.6163 68.2495 24.3256 68.0337 24.1099C67.8178 23.8942 67.5269 23.7701 67.2217 23.7636L67.2217 23.7635Z" fill="#E6E6E6"/>
<path d="M301.525 280.172H17.3819C13.7889 280.169 10.3442 278.74 7.80347 276.201C5.26278 273.663 3.83363 270.22 3.82959 266.629V13.5435C3.83362 9.95277 5.26274 6.51027 7.80342 3.97124C10.3441 1.43222 13.7889 0.00402648 17.3819 0H301.525C305.118 0.00402649 308.563 1.43222 311.104 3.97124C313.644 6.51027 315.074 9.95277 315.078 13.5435V266.629C315.074 270.22 313.644 273.663 311.104 276.201C308.563 278.74 305.118 280.169 301.525 280.172ZM17.3819 1.54365C14.1984 1.54727 11.1463 2.8127 8.89521 5.06232C6.64412 7.31195 5.37787 10.362 5.37424 13.5435V266.629C5.37795 269.811 6.64424 272.861 8.89533 275.11C11.1464 277.36 14.1985 278.625 17.3819 278.629H301.525C304.709 278.625 307.761 277.36 310.012 275.11C312.263 272.861 313.529 269.811 313.533 266.629V13.5435C313.529 10.362 312.263 7.31195 310.012 5.06232C307.761 2.8127 304.709 1.54727 301.525 1.54365H17.3819Z" fill="#E6E6E6"/>
<path d="M16.9112 172.199L116.834 171.895L216.248 171.593L272.327 171.422C272.627 171.412 272.912 171.285 273.12 171.069C273.329 170.854 273.446 170.565 273.446 170.265C273.446 169.964 273.329 169.676 273.12 169.46C272.912 169.244 272.627 169.117 272.327 169.107L172.404 169.411L72.9905 169.713L16.9112 169.883C16.6109 169.894 16.3263 170.02 16.1176 170.236C15.9088 170.452 15.7921 170.741 15.7921 171.041C15.7921 171.341 15.9088 171.63 16.1176 171.846C16.3263 172.062 16.6109 172.188 16.9112 172.199Z" fill="#E6E6E6"/>
<path d="M67.3208 170.322L67.9387 133.863C67.964 132.372 65.647 132.372 65.6217 133.863L65.0039 170.322C64.9786 171.812 67.2956 171.812 67.3208 170.322Z" fill="#E6E6E6"/>
<path d="M115.078 170.716L116.584 124.889L117.014 111.796C117.063 110.306 114.746 110.307 114.697 111.796L113.191 157.623L112.761 170.716C112.712 172.207 115.029 172.205 115.078 170.716Z" fill="#E6E6E6"/>
<path d="M162.706 90.0729C161.798 106.304 160.117 154.181 159.209 170.412C159.126 171.901 161.443 171.896 161.526 170.412C162.434 154.181 164.115 106.304 165.023 90.0729C165.106 88.584 162.789 88.5888 162.706 90.0729Z" fill="#E6E6E6"/>
<path d="M210.105 154.125L209.821 169.726C209.794 171.217 212.111 171.217 212.138 169.726C212.473 151.3 213.334 151.901 213.428 146.7C213.455 145.21 211.139 145.21 211.111 146.7C211.111 146.7 210.44 135.699 210.105 154.125Z" fill="#E6E6E6"/>
<path d="M256.531 113.141L256.793 156.91L256.868 169.443C256.879 169.743 257.005 170.027 257.221 170.236C257.438 170.445 257.726 170.561 258.027 170.561C258.327 170.561 258.616 170.445 258.832 170.236C259.048 170.027 259.175 169.743 259.185 169.443L258.923 125.674L258.848 113.141C258.838 112.841 258.711 112.556 258.495 112.348C258.279 112.139 257.99 112.022 257.69 112.022C257.389 112.022 257.101 112.139 256.884 112.348C256.668 112.556 256.542 112.841 256.531 113.141Z" fill="#E6E6E6"/>
<path d="M17.0975 170.896C15.1796 165.629 19.5029 160.564 23.9451 158.287C29.2672 155.56 35.3897 154.942 40.7682 152.313C48.7867 148.394 54.6272 141.36 59.8241 134.319C65.173 127.072 70.0673 119.294 76.8641 113.273C80.4457 110.03 84.6758 107.583 89.2744 106.096C95.0686 104.289 101.214 104.165 107.201 104.893C119.572 106.398 131.041 111.504 142.978 114.75C154.232 117.81 166.633 119.531 177.679 114.772C183.292 112.355 187.881 108.3 192.811 104.791C197.581 101.36 202.916 98.7885 208.573 97.193C219.662 94.1114 231.772 94.9343 242.096 100.144C251.586 104.871 259.1 112.796 263.311 122.521C268.206 134.205 267.568 147.262 265.97 159.561C265.556 162.74 265.065 165.908 264.567 169.075C264.339 170.532 266.571 171.16 266.802 169.69C268.793 157.008 270.777 143.925 268.3 131.164C266.158 120.021 260.027 110.039 251.053 103.087C242.042 96.1165 230.839 92.5834 219.456 93.122C213.491 93.3986 207.619 94.7038 202.099 96.9798C196.369 99.3485 191.516 102.859 186.588 106.553C181.52 110.352 176.297 113.493 170.005 114.732C163.903 115.933 157.554 115.483 151.478 114.349C138.942 112.008 127.256 106.642 114.826 103.892C103.309 101.345 90.8816 101.091 80.5689 107.592C72.636 112.594 67.0305 120.358 61.6509 127.856C56.3184 135.288 50.9186 143.235 43.1211 148.311C38.3646 151.408 33.0177 152.551 27.6967 154.293C22.362 156.039 17.2406 158.984 15.0655 164.446C14.128 166.696 14.056 169.212 14.8632 171.512C15.3691 172.901 17.6091 172.301 17.0975 170.896V170.896Z" fill="#E6E6E6"/>
<path d="M66.5526 128.822L66.5492 128.823L66.556 128.822H66.5526Z" fill="#E6E6E6"/>
<path d="M70.5695 126.692C70.034 125.744 69.1797 125.017 68.1583 124.639C67.137 124.261 66.0147 124.257 64.9909 124.628C64.4819 124.814 64.0154 125.1 63.6189 125.469C63.2223 125.838 62.9039 126.282 62.6823 126.776C62.638 126.881 62.612 126.992 62.5758 127.099C62.5256 127.181 62.4653 127.254 62.4203 127.339C61.9401 128.295 61.8086 129.389 62.0485 130.431C62.2884 131.474 62.8846 132.401 63.7345 133.051C64.5844 133.702 65.6347 134.036 66.7046 133.996C67.7745 133.956 68.7969 133.545 69.5959 132.832C70.4355 132.074 70.99 131.051 71.1672 129.934C71.3443 128.817 71.1334 127.672 70.5695 126.692ZM67.6677 128.658C67.6772 128.716 67.6737 128.77 67.6677 128.658V128.658ZM67.3727 127.988C67.3613 127.975 67.3628 127.976 67.3727 127.988V127.988ZM66.0726 128.51C66.0552 128.483 66.0535 128.479 66.0726 128.51V128.51ZM66.3808 128.771C66.4541 128.796 66.4251 128.791 66.3808 128.771V128.771ZM66.5184 128.837L66.5489 128.823C66.5414 128.823 66.5339 128.822 66.5273 128.819L66.5282 128.818L66.5521 128.821L66.5565 128.819L66.5427 128.816C66.5547 128.816 66.5561 128.817 66.5569 128.819C66.6947 128.756 66.6014 128.786 66.5215 128.811L66.5161 128.81C66.4662 128.785 66.4126 128.767 66.3573 128.759C66.3522 128.756 66.3461 128.754 66.3419 128.751C66.2975 128.719 66.0733 128.544 66.2813 128.728C66.236 128.688 66.1913 128.649 66.1487 128.606C66.1236 128.58 66.1009 128.552 66.0807 128.522C66.0535 128.475 66.027 128.428 66.0014 128.381L65.9975 128.355C65.9941 128.334 65.9916 128.325 65.9887 128.312C65.9901 128.299 65.9922 128.284 65.9942 128.271C66.0098 128.229 66.0197 128.185 66.0237 128.141L66.0326 128.13C66.0659 128.084 66.095 128.029 66.1268 127.981C65.9589 128.236 66.1925 127.953 66.2099 127.917C66.2129 127.911 66.2077 127.914 66.209 127.91C66.2158 127.906 66.2137 127.909 66.2219 127.904C66.2739 127.874 66.3232 127.839 66.3761 127.81C66.439 127.775 66.6869 127.705 66.4298 127.778C66.4882 127.762 66.5443 127.741 66.6033 127.725C66.614 127.722 66.7005 127.71 66.7472 127.702C66.7881 127.701 66.8278 127.7 66.832 127.7C66.8512 127.7 66.8705 127.702 66.8897 127.703C66.8471 127.709 67.0361 127.75 67.0923 127.758C67.1004 127.765 67.1045 127.769 67.1156 127.777C67.163 127.812 67.2208 127.842 67.2709 127.875C67.0468 127.73 67.2738 127.886 67.3166 127.929C67.3422 127.955 67.3658 127.982 67.3899 128.009C67.4119 128.034 67.4319 128.062 67.4495 128.091C67.4863 128.158 67.5253 128.226 67.5639 128.292L67.5746 128.309C67.5744 128.311 67.5743 128.313 67.5743 128.316C67.5944 128.423 67.6241 128.528 67.663 128.63C67.6649 128.639 67.6664 128.648 67.6674 128.657C67.671 128.715 67.6759 128.774 67.676 128.833L67.6755 128.845C67.4971 128.752 67.2991 128.703 67.0979 128.701C66.8967 128.7 66.6981 128.746 66.5184 128.837H66.5184Z" fill="#E6E6E6"/>
<path d="M66.5596 128.82C66.564 128.821 66.5598 128.821 66.5588 128.822L66.5596 128.82Z" fill="#E6E6E6"/>
<path d="M66.5586 128.82L66.5597 128.82L66.5586 128.82Z" fill="#E6E6E6"/>
<path d="M66.5588 128.821L66.5553 128.822C66.5597 128.822 66.5581 128.822 66.5588 128.821Z" fill="#E6E6E6"/>
<path d="M66.5569 128.819L66.5589 128.82L66.5569 128.819Z" fill="#E6E6E6"/>
<path d="M115.982 107.21L115.978 107.212L115.985 107.21H115.982Z" fill="#E6E6E6"/>
<path d="M119.998 105.081C119.463 104.133 118.609 103.406 117.587 103.028C116.566 102.65 115.444 102.646 114.42 103.017C113.911 103.203 113.444 103.489 113.048 103.858C112.651 104.227 112.333 104.671 112.111 105.165C112.067 105.27 112.041 105.381 112.005 105.488C111.955 105.569 111.894 105.643 111.849 105.728C111.369 106.684 111.238 107.778 111.477 108.82C111.717 109.863 112.314 110.79 113.163 111.44C114.013 112.091 115.064 112.425 116.134 112.385C117.203 112.345 118.226 111.934 119.025 111.221C119.864 110.463 120.419 109.44 120.596 108.323C120.773 107.205 120.562 106.061 119.998 105.081ZM117.097 107.047C117.106 107.105 117.103 107.159 117.097 107.047V107.047ZM116.802 106.377C116.79 106.364 116.792 106.365 116.802 106.377V106.377ZM115.502 106.899C115.484 106.872 115.482 106.868 115.502 106.899V106.899ZM115.81 107.16C115.883 107.185 115.854 107.18 115.81 107.16V107.16ZM115.947 107.226L115.978 107.212C115.97 107.212 115.963 107.211 115.956 107.207L115.957 107.207L115.981 107.21L115.985 107.208L115.972 107.205C115.984 107.205 115.985 107.206 115.986 107.208C116.124 107.145 116.03 107.175 115.95 107.2L115.945 107.199C115.895 107.174 115.842 107.156 115.786 107.148C115.781 107.145 115.775 107.143 115.771 107.14C115.726 107.108 115.502 106.933 115.71 107.117C115.665 107.077 115.62 107.038 115.578 106.995C115.553 106.969 115.53 106.941 115.51 106.911C115.482 106.864 115.456 106.817 115.43 106.77L115.426 106.744C115.423 106.722 115.42 106.714 115.418 106.701C115.419 106.688 115.421 106.673 115.423 106.66C115.439 106.618 115.449 106.574 115.453 106.53L115.462 106.519C115.495 106.472 115.524 106.418 115.556 106.37C115.388 106.625 115.621 106.342 115.639 106.306C115.642 106.3 115.637 106.303 115.638 106.299C115.645 106.295 115.643 106.298 115.651 106.293C115.703 106.262 115.752 106.228 115.805 106.199C115.868 106.164 116.116 106.094 115.859 106.167C115.917 106.151 115.973 106.13 116.032 106.114C116.043 106.111 116.129 106.099 116.176 106.091C116.217 106.09 116.257 106.089 116.261 106.089C116.28 106.089 116.299 106.091 116.319 106.092C116.276 106.098 116.465 106.139 116.521 106.147C116.529 106.154 116.533 106.158 116.544 106.166C116.592 106.2 116.65 106.231 116.7 106.264C116.476 106.119 116.703 106.275 116.746 106.318C116.771 106.344 116.795 106.371 116.819 106.398C116.841 106.423 116.861 106.451 116.878 106.479C116.915 106.547 116.954 106.615 116.993 106.681L117.004 106.698C117.003 106.7 117.003 106.702 117.003 106.705C117.023 106.812 117.053 106.917 117.092 107.019C117.094 107.028 117.095 107.037 117.096 107.045C117.1 107.104 117.105 107.163 117.105 107.222L117.104 107.234C116.926 107.141 116.728 107.092 116.527 107.09C116.326 107.089 116.127 107.135 115.947 107.226Z" fill="#E6E6E6"/>
<path d="M115.988 107.21L115.984 107.211C115.989 107.211 115.987 107.21 115.988 107.21Z" fill="#E6E6E6"/>
<path d="M115.986 107.208L115.988 107.209L115.986 107.208Z" fill="#E6E6E6"/>
<path d="M115.989 107.209C115.993 107.21 115.989 107.21 115.988 107.21L115.989 107.209Z" fill="#E6E6E6"/>
<path d="M115.988 107.209L115.989 107.209L115.988 107.209Z" fill="#E6E6E6"/>
<path d="M163.87 118.014L163.872 118.015L163.87 118.014Z" fill="#E6E6E6"/>
<path d="M167.883 83.4695C167.347 82.5218 166.493 81.7945 165.472 81.4167C164.45 81.0389 163.328 81.0352 162.304 81.4061C161.795 81.5918 161.329 81.8775 160.932 82.2465C160.536 82.6154 160.217 83.0601 159.996 83.5542C159.951 83.6592 159.925 83.7696 159.889 83.8772C159.839 83.9584 159.779 84.0316 159.734 84.1165C159.253 85.0727 159.122 86.1664 159.362 87.2092C159.602 88.2519 160.198 89.1784 161.048 89.8291C161.898 90.4798 162.948 90.8139 164.018 90.774C165.088 90.734 166.11 90.3225 166.909 89.6102C167.749 88.8517 168.303 87.8288 168.481 86.7116C168.658 85.5944 168.447 84.4502 167.883 83.4695ZM164.981 85.4358C164.991 85.4942 164.987 85.5479 164.981 85.4358V85.4358ZM164.686 84.7655C164.675 84.7525 164.676 84.7539 164.686 84.7655V84.7655ZM163.386 85.288C163.369 85.2612 163.367 85.2567 163.386 85.288V85.288ZM163.694 85.549C163.767 85.574 163.738 85.5688 163.694 85.549V85.549ZM163.832 85.6146L163.862 85.6006C163.855 85.6013 163.847 85.5998 163.841 85.5963L163.841 85.5962L163.865 85.5991L163.87 85.5971L163.856 85.5939C163.868 85.5935 163.869 85.5951 163.87 85.597C164.008 85.5339 163.915 85.5643 163.835 85.589L163.829 85.5878C163.78 85.5625 163.726 85.5453 163.671 85.5368C163.665 85.534 163.659 85.5319 163.655 85.5288C163.611 85.4973 163.387 85.3223 163.595 85.5058C163.549 85.4658 163.505 85.4266 163.462 85.3835C163.437 85.3577 163.414 85.3298 163.394 85.3C163.367 85.2532 163.34 85.206 163.315 85.1584L163.311 85.1328C163.307 85.1114 163.305 85.1026 163.302 85.0897C163.303 85.0765 163.305 85.0623 163.308 85.0485C163.323 85.0068 163.333 84.9633 163.337 84.9191L163.346 84.9078C163.379 84.8614 163.408 84.8072 163.44 84.759C163.272 85.0138 163.506 84.7309 163.523 84.695C163.526 84.6889 163.521 84.6922 163.522 84.688C163.529 84.6842 163.527 84.6868 163.535 84.682C163.587 84.6514 163.637 84.6172 163.689 84.588C163.752 84.5531 164 84.4828 163.743 84.5562C163.802 84.5396 163.858 84.5185 163.917 84.5031C163.927 84.5003 164.014 84.4882 164.06 84.4798C164.101 84.4788 164.141 84.4776 164.145 84.4776C164.165 84.4779 164.184 84.4802 164.203 84.4811C164.16 84.4868 164.349 84.5276 164.406 84.5362C164.414 84.5426 164.418 84.5467 164.429 84.5547C164.476 84.5894 164.534 84.6202 164.584 84.6526C164.36 84.5079 164.587 84.6641 164.63 84.7068C164.656 84.7324 164.679 84.7597 164.703 84.7866C164.725 84.8122 164.745 84.8396 164.763 84.8684C164.8 84.9357 164.839 85.0037 164.877 85.0699L164.888 85.0869C164.888 85.0891 164.888 85.0913 164.888 85.0935C164.908 85.2008 164.937 85.3061 164.976 85.4082C164.978 85.4168 164.98 85.4256 164.981 85.4344C164.984 85.4932 164.989 85.5518 164.989 85.6109L164.989 85.6228C164.81 85.5299 164.612 85.4806 164.411 85.4792C164.21 85.4778 164.011 85.5242 163.832 85.6146Z" fill="#E6E6E6"/>
<path d="M163.866 118.016L163.862 118.018L163.869 118.016H163.866Z" fill="#E6E6E6"/>
<path d="M163.872 118.014L163.873 118.014L163.872 118.014Z" fill="#E6E6E6"/>
<path d="M163.872 118.016L163.869 118.016C163.873 118.017 163.871 118.016 163.872 118.016Z" fill="#E6E6E6"/>
<path d="M163.873 118.014C163.877 118.016 163.873 118.016 163.872 118.016L163.873 118.014Z" fill="#E6E6E6"/>
<path d="M216.539 142.9C216.004 141.952 215.15 141.225 214.128 140.847C213.107 140.469 211.985 140.466 210.961 140.837C210.452 141.022 209.985 141.308 209.589 141.677C209.192 142.046 208.874 142.491 208.652 142.985C208.608 143.09 208.582 143.2 208.546 143.308C208.496 143.389 208.435 143.462 208.39 143.547C207.91 144.503 207.779 145.597 208.018 146.64C208.258 147.682 208.855 148.609 209.704 149.26C210.554 149.91 211.605 150.244 212.675 150.204C213.744 150.164 214.767 149.753 215.566 149.041C216.406 148.282 216.96 147.259 217.137 146.142C217.314 145.025 217.103 143.881 216.539 142.9ZM213.638 144.866C213.647 144.925 213.644 144.978 213.638 144.866V144.866ZM213.343 144.196C213.331 144.183 213.333 144.184 213.343 144.196V144.196ZM212.043 144.718C212.025 144.692 212.023 144.687 212.043 144.718V144.718ZM212.351 144.979C212.424 145.004 212.395 144.999 212.351 144.979V144.979ZM212.488 145.045L212.519 145.031C212.511 145.032 212.504 145.03 212.497 145.027L212.498 145.027L212.522 145.03L212.526 145.028L212.513 145.024C212.525 145.024 212.526 145.026 212.527 145.027C212.665 144.964 212.571 144.995 212.491 145.019L212.486 145.018C212.436 144.993 212.383 144.976 212.327 144.967C212.322 144.964 212.316 144.962 212.312 144.959C212.267 144.928 212.043 144.753 212.251 144.936C212.206 144.896 212.161 144.857 212.119 144.814C212.094 144.788 212.071 144.76 212.051 144.73C212.023 144.684 211.997 144.636 211.971 144.589L211.967 144.563C211.964 144.542 211.961 144.533 211.959 144.52C211.96 144.507 211.962 144.493 211.964 144.479C211.98 144.437 211.99 144.394 211.994 144.349L212.003 144.338C212.036 144.292 212.065 144.238 212.097 144.189C211.929 144.444 212.162 144.161 212.18 144.125C212.183 144.119 212.178 144.123 212.179 144.118C212.186 144.115 212.184 144.117 212.192 144.112C212.244 144.082 212.293 144.048 212.346 144.018C212.409 143.984 212.657 143.913 212.4 143.987C212.458 143.97 212.514 143.949 212.573 143.934C212.584 143.931 212.67 143.919 212.717 143.91C212.758 143.909 212.798 143.908 212.802 143.908C212.821 143.908 212.84 143.911 212.86 143.911C212.817 143.917 213.006 143.958 213.062 143.967C213.07 143.973 213.074 143.977 213.085 143.985C213.133 144.02 213.191 144.051 213.241 144.083C213.017 143.938 213.244 144.094 213.287 144.137C213.312 144.163 213.336 144.19 213.36 144.217C213.382 144.243 213.402 144.27 213.419 144.299C213.456 144.366 213.495 144.434 213.534 144.5L213.545 144.517C213.544 144.52 213.544 144.522 213.544 144.524C213.564 144.631 213.594 144.737 213.633 144.839C213.635 144.847 213.636 144.856 213.637 144.865C213.641 144.924 213.646 144.982 213.646 145.041L213.645 145.053C213.467 144.96 213.269 144.911 213.068 144.91C212.867 144.908 212.668 144.955 212.488 145.045Z" fill="#E6E6E6"/>
<path d="M212.522 94.0894L212.519 94.0911L212.526 94.0894H212.522Z" fill="#E6E6E6"/>
<path d="M212.528 94.0876L212.53 94.088L212.528 94.0876Z" fill="#E6E6E6"/>
<path d="M212.529 94.0891L212.525 94.0897C212.53 94.0901 212.528 94.0894 212.529 94.0891Z" fill="#E6E6E6"/>
<path d="M212.529 94.0879C212.534 94.0892 212.53 94.089 212.529 94.0894L212.529 94.0879Z" fill="#E6E6E6"/>
<path d="M212.527 94.0869L212.529 94.0879L212.527 94.0869Z" fill="#E6E6E6"/>
<path d="M258.096 109.524L258.097 109.525L258.096 109.524Z" fill="#E6E6E6"/>
<path d="M262.107 107.396C261.571 106.448 260.717 105.721 259.696 105.343C258.674 104.965 257.552 104.962 256.528 105.333C256.019 105.518 255.553 105.804 255.156 106.173C254.76 106.542 254.441 106.987 254.22 107.481C254.175 107.586 254.149 107.696 254.113 107.804C254.063 107.885 254.003 107.958 253.958 108.043C253.477 108.999 253.346 110.093 253.586 111.136C253.826 112.178 254.422 113.105 255.272 113.756C256.122 114.406 257.172 114.74 258.242 114.701C259.312 114.661 260.334 114.249 261.133 113.537C261.973 112.778 262.527 111.755 262.704 110.638C262.882 109.521 262.671 108.377 262.107 107.396ZM259.205 109.362C259.214 109.421 259.211 109.474 259.205 109.362V109.362ZM258.91 108.692C258.899 108.679 258.9 108.68 258.91 108.692V108.692ZM257.61 109.214C257.592 109.188 257.591 109.183 257.61 109.214V109.214ZM257.918 109.476C257.991 109.501 257.962 109.495 257.918 109.476V109.476ZM258.056 109.541L258.086 109.527C258.079 109.528 258.071 109.526 258.064 109.523L258.065 109.523L258.089 109.526L258.094 109.524L258.08 109.52C258.092 109.52 258.093 109.522 258.094 109.524C258.232 109.46 258.139 109.491 258.059 109.516L258.053 109.514C258.003 109.489 257.95 109.472 257.894 109.463C257.889 109.46 257.883 109.458 257.879 109.455C257.835 109.424 257.61 109.249 257.818 109.432C257.773 109.392 257.728 109.353 257.686 109.31C257.661 109.284 257.638 109.256 257.618 109.227C257.591 109.18 257.564 109.133 257.539 109.085L257.535 109.059C257.531 109.038 257.529 109.029 257.526 109.016C257.527 109.003 257.529 108.989 257.531 108.975C257.547 108.933 257.557 108.89 257.561 108.846L257.57 108.834C257.603 108.788 257.632 108.734 257.664 108.686C257.496 108.94 257.73 108.657 257.747 108.622C257.75 108.615 257.745 108.619 257.746 108.615C257.753 108.611 257.751 108.613 257.759 108.609C257.811 108.578 257.86 108.544 257.913 108.515C257.976 108.48 258.224 108.409 257.967 108.483C258.025 108.466 258.081 108.445 258.14 108.43C258.151 108.427 258.238 108.415 258.284 108.406C258.325 108.405 258.365 108.404 258.369 108.404C258.388 108.404 258.408 108.407 258.427 108.408C258.384 108.413 258.573 108.454 258.629 108.463C258.638 108.469 258.642 108.473 258.653 108.481C258.7 108.516 258.758 108.547 258.808 108.579C258.584 108.434 258.811 108.591 258.854 108.633C258.879 108.659 258.903 108.686 258.927 108.713C258.949 108.739 258.969 108.766 258.987 108.795C259.023 108.862 259.063 108.93 259.101 108.996L259.112 109.013C259.112 109.016 259.112 109.018 259.112 109.02C259.132 109.127 259.161 109.233 259.2 109.335C259.202 109.343 259.204 109.352 259.205 109.361C259.208 109.42 259.213 109.478 259.213 109.537L259.213 109.549C259.034 109.456 258.836 109.407 258.635 109.406C258.434 109.404 258.235 109.451 258.056 109.541Z" fill="#E6E6E6"/>
<path d="M258.09 109.526L258.086 109.528L258.093 109.526H258.09Z" fill="#E6E6E6"/>
<path d="M258.094 109.523L258.096 109.524L258.094 109.523Z" fill="#E6E6E6"/>
<path d="M258.097 109.524C258.101 109.526 258.097 109.526 258.096 109.526L258.097 109.524Z" fill="#E6E6E6"/>
<path d="M258.096 109.526L258.093 109.526C258.097 109.527 258.095 109.526 258.096 109.526Z" fill="#E6E6E6"/>
<path d="M245.603 144.897L209.692 146.892C209.489 146.903 209.29 146.836 209.136 146.705C208.981 146.574 208.883 146.389 208.861 146.187C208.839 145.986 208.895 145.784 209.018 145.623C209.141 145.461 209.321 145.353 209.521 145.321L246.225 139.352L245.603 144.897Z" fill="#3F3D56"/>
<path d="M291.24 224.794L304.772 202.042L314.774 206.762C314.774 206.762 297.54 228.274 296.991 228.893C297.226 229.939 297.138 231.031 296.738 232.026C296.339 233.02 295.646 233.87 294.753 234.463C293.859 235.056 292.807 235.363 291.735 235.345C290.663 235.327 289.621 234.985 288.748 234.362C287.875 233.74 287.212 232.867 286.846 231.86C286.48 230.852 286.428 229.758 286.699 228.721C286.969 227.684 287.547 226.753 288.358 226.052C289.169 225.35 290.174 224.912 291.24 224.794Z" fill="#FFB6B6"/>
<path d="M296.869 171.942L318.794 183.374C320.164 184.36 321.313 185.621 322.168 187.077C323.022 188.532 323.563 190.15 323.757 191.827C323.95 193.503 323.791 195.201 323.291 196.813C322.79 198.425 321.958 199.914 320.848 201.186L305.734 218.513L299.149 209.596L304.224 198.992L294.397 196.402L296.869 171.942Z" fill="#6C63FF"/>
<path d="M234.39 145.269L231.921 171.621L220.859 171.64C220.859 171.64 227.206 144.822 227.436 144.028C226.775 143.184 226.387 142.159 226.321 141.089C226.256 140.02 226.517 138.955 227.07 138.037C227.623 137.119 228.441 136.39 229.418 135.947C230.394 135.504 231.482 135.368 232.538 135.556C233.594 135.745 234.567 136.249 235.33 137.002C236.093 137.756 236.609 138.723 236.809 139.776C237.01 140.828 236.886 141.917 236.454 142.898C236.022 143.879 235.303 144.706 234.39 145.269V145.269Z" fill="#FFB6B6"/>
<path d="M256.409 199.159L230.949 194.493C220.228 193.205 215.829 186.155 217.763 179.279L223.988 157.151L233.761 162.387L233.724 174.142L247.404 172.273L256.409 199.159Z" fill="#6C63FF"/>
<path d="M245.987 381.275H238.987L235.656 354.291H245.989L245.987 381.275Z" fill="#FFB6B6"/>
<path d="M246.234 388.574L224.706 388.573V388.301C224.707 386.08 225.589 383.951 227.161 382.38C228.732 380.81 230.863 379.928 233.085 379.928H233.086L237.018 376.946L244.355 379.928L246.234 379.928L246.234 388.574Z" fill="#2F2E41"/>
<path d="M295.52 381.275H302.521L305.851 354.291H295.519L295.52 381.275Z" fill="#FFB6B6"/>
<path d="M295.274 388.574L316.801 388.573V388.301C316.801 386.08 315.918 383.951 314.347 382.38C312.775 380.81 310.644 379.928 308.422 379.928H308.422L304.489 376.946L297.153 379.928L295.273 379.928L295.274 388.574Z" fill="#2F2E41"/>
<path d="M235.349 334.461C235.452 332.921 236.274 324.406 236.274 324.406L238.243 306.347L241.713 258.477L244.807 245.895L260.119 251.856L272.543 245.904L287.311 250.621L298.81 254.93C298.81 254.93 298.829 256.775 298.918 259.004C299.036 261.921 299.243 265.497 299.735 266.427C300.557 268.07 300.35 276.89 300.35 276.89C300.35 276.89 301.168 294.836 302.196 296.804C303.225 298.771 303.432 302.869 303.122 303.691C302.812 304.512 304.151 326.064 304.151 326.064C304.151 326.064 307.587 364.202 305.431 369.953C303.275 375.703 295.128 371.936 295.128 371.936C295.128 371.936 295.521 370.402 293.159 369.678C290.796 368.955 283.599 314.877 283.599 314.877C283.599 314.877 282.26 303.789 281.029 300.611C279.799 297.433 278.667 288.505 278.667 288.505C278.667 288.505 271.066 273.727 270.968 270.441C270.968 270.441 269.974 267.366 269.033 270.751C268.093 274.135 265.322 282.243 265.322 282.243L262.619 292.199L259.439 307.075L257.382 319.6C257.382 319.6 254.3 336.222 253.808 336.94C253.316 337.659 253.808 352.845 253.808 352.845C253.808 352.845 251.425 365.777 248.058 368.035C244.691 370.293 235.771 368.071 235.771 368.071C235.771 368.071 235.245 336.001 235.349 334.461Z" fill="#2F2E41"/>
<path d="M246.795 205.408L244.838 230.738L241.899 233.778C241.634 234.052 241.427 234.377 241.29 234.733C241.154 235.088 241.091 235.468 241.105 235.849C241.118 236.23 241.209 236.604 241.371 236.949C241.533 237.295 241.763 237.603 242.047 237.858L240.428 240.633L239.855 249.378C239.691 250.058 239.68 250.766 239.822 251.452C239.964 252.137 240.255 252.782 240.676 253.342C241.096 253.902 241.635 254.361 242.254 254.689C242.873 255.016 243.556 255.203 244.256 255.236L294.945 257.616C295.641 257.648 296.335 257.528 296.979 257.263C297.623 256.998 298.201 256.595 298.672 256.083C299.143 255.57 299.495 254.961 299.705 254.297C299.914 253.633 299.975 252.932 299.883 252.242L295.573 219.815V217.39L293.644 212.707L294.635 197.021L296.942 172.123L283.533 168.661L276.262 163.662L263.631 163.863L255.967 170.154L245.747 171.753L238.019 173.288L237.035 175.426L239.004 174.999L246.14 202.816L246.795 205.408Z" fill="#6C63FF"/>
<path d="M269.664 160.268C277.882 160.268 284.544 153.61 284.544 145.398C284.544 137.185 277.882 130.528 269.664 130.528C261.446 130.528 254.784 137.185 254.784 145.398C254.784 153.61 261.446 160.268 269.664 160.268Z" fill="#FFB6B6"/>
<path d="M266.077 159.309L276.827 158.761C278.205 158.69 279.708 158.569 280.71 157.621C281.249 157.036 281.664 156.348 281.929 155.598C282.923 153.291 283.917 150.984 284.885 148.666C286.225 145.46 287.54 142.075 287.198 138.617C287.118 137.038 286.456 135.545 285.338 134.426C284.768 133.886 284.035 133.551 283.254 133.472C282.473 133.393 281.688 133.574 281.021 133.988C280.855 132.895 280.443 131.853 279.815 130.942C279.187 130.031 278.361 129.275 277.397 128.73C275.452 127.656 273.23 127.186 271.016 127.378C267.803 127.585 264.736 128.793 262.245 130.833C261.545 131.479 260.797 132.071 260.008 132.605C259.611 132.87 259.164 133.052 258.694 133.138C258.225 133.225 257.743 133.216 257.277 133.11C256.816 132.987 256.415 132.701 256.148 132.305C255.881 131.909 255.767 131.43 255.826 130.957C255.069 131.523 254.55 132.35 254.37 133.278C254.19 134.205 254.363 135.166 254.854 135.974C254.295 136.207 253.686 136.293 253.086 136.222C252.485 136.151 251.912 135.926 251.424 135.568C250.901 135.828 250.438 136.193 250.065 136.642C249.692 137.09 249.416 137.612 249.256 138.173C249.096 138.734 249.055 139.322 249.135 139.9C249.216 140.478 249.416 141.032 249.724 141.528C250.031 142.024 250.439 142.45 250.921 142.78C251.403 143.109 251.948 143.334 252.522 143.441C253.096 143.547 253.686 143.533 254.254 143.398C254.822 143.264 255.356 143.013 255.821 142.66C256.473 143.573 256.23 144.814 256.145 145.933C256.06 147.052 256.361 148.443 257.44 148.752C258.899 149.17 260.081 147.207 261.599 147.228C261.974 147.258 262.335 147.38 262.651 147.584C262.966 147.787 263.227 148.065 263.409 148.393C263.767 149.053 264.012 149.767 264.134 150.508L266.077 159.248" fill="#2F2E41"/>
<path d="M685.253 293.013C685.253 290.711 684.479 288.842 683.529 288.838H424.533C423.579 288.842 422.809 290.711 422.805 293.013V387.801C422.805 388.015 422.726 388.221 422.582 388.379C422.438 388.537 422.241 388.637 422.028 388.657C421.332 388.724 420.637 388.786 419.942 388.843C419.925 388.843 419.908 388.848 419.891 388.848C419.512 388.882 419.134 388.908 418.756 388.938H418.751C418.557 388.578 418.365 388.216 418.174 387.85C418.11 387.727 418.077 387.59 418.077 387.451V287.596C418.077 286.96 418.102 286.32 418.145 285.689C418.207 284.822 418.314 283.958 418.468 283.103C419.194 279.112 420.836 276.409 422.702 276.401H685.356C685.628 276.403 685.898 276.46 686.147 276.568C686.514 276.73 686.845 276.963 687.123 277.251C687.5 277.643 687.822 278.084 688.082 278.562C689.152 280.693 689.768 283.023 689.891 285.405C689.891 285.431 689.896 285.457 689.896 285.482C689.956 286.178 689.986 286.887 689.982 287.596L690.042 296.802L690.081 302.293L690.197 319.519L690.24 325.637L690.429 388.444C690.429 388.672 690.338 388.89 690.177 389.051C690.016 389.213 689.797 389.303 689.569 389.303H686.113C685.885 389.303 685.666 389.213 685.505 389.051C685.344 388.89 685.253 388.672 685.253 388.444V293.013Z" fill="#E6E6E6"/>
<path d="M614.876 233.323H586.968C586.574 233.323 586.195 233.481 585.916 233.76C585.638 234.039 585.481 234.418 585.482 234.812V278.869H616.366V234.812C616.366 234.617 616.328 234.423 616.253 234.242C616.178 234.061 616.068 233.897 615.93 233.759C615.791 233.62 615.627 233.511 615.446 233.436C615.265 233.361 615.071 233.323 614.876 233.323ZM601.016 258.355C600.143 258.351 599.307 258.003 598.69 257.386C598.073 256.769 597.725 255.934 597.72 255.062V249.98C597.72 249.107 598.068 248.269 598.686 247.652C599.304 247.034 600.142 246.687 601.016 246.687C601.89 246.687 602.728 247.034 603.346 247.652C603.964 248.269 604.311 249.107 604.311 249.98V255.062C604.307 255.934 603.959 256.769 603.342 257.386C602.724 258.003 601.889 258.351 601.016 258.355Z" fill="#CCCCCC"/>
<path d="M585.386 277.46V281.71C585.386 281.931 585.474 282.142 585.63 282.297C585.786 282.453 585.997 282.541 586.217 282.541H615.63C615.851 282.54 616.061 282.452 616.217 282.297C616.373 282.141 616.461 281.93 616.462 281.71V277.46H585.386Z" fill="#3F3D56"/>
<path d="M661.088 164.567H541.795C540.77 164.569 539.787 164.977 539.063 165.701C538.338 166.425 537.93 167.407 537.928 168.431V248.878C537.929 249.902 538.337 250.885 539.062 251.609C539.787 252.333 540.77 252.741 541.795 252.742H661.088C662.113 252.741 663.095 252.333 663.82 251.609C664.545 250.885 664.953 249.902 664.954 248.878V168.431C664.952 167.407 664.544 166.425 663.82 165.701C663.095 164.977 662.112 164.569 661.088 164.567Z" fill="#E6E6E6"/>
<path d="M660.092 167.358H542.792C542.243 167.359 541.717 167.578 541.329 167.966C540.942 168.354 540.724 168.88 540.724 169.429V247.882C540.725 248.429 540.943 248.954 541.33 249.342C541.718 249.729 542.243 249.947 542.792 249.948H660.092C660.64 249.947 661.165 249.729 661.553 249.342C661.94 248.954 662.159 248.429 662.159 247.882V169.429C662.159 168.88 661.942 168.354 661.554 167.966C661.166 167.578 660.641 167.359 660.092 167.358Z" fill="white"/>
<path d="M637.244 284.02H567.456C567.265 284.02 567.077 283.978 566.904 283.896C566.732 283.814 566.58 283.694 566.459 283.546C566.339 283.398 566.253 283.224 566.209 283.039C566.164 282.853 566.161 282.66 566.2 282.473L567.283 277.334C567.345 277.046 567.503 276.788 567.731 276.603C567.96 276.418 568.245 276.316 568.539 276.315H636.161C636.455 276.316 636.74 276.418 636.969 276.603C637.197 276.788 637.355 277.046 637.417 277.334L638.5 282.473C638.539 282.66 638.536 282.853 638.492 283.039C638.447 283.224 638.361 283.398 638.241 283.546C638.12 283.694 637.968 283.814 637.796 283.896C637.623 283.978 637.435 284.02 637.244 284.02Z" fill="#CCCCCC"/>
<path d="M570.807 277.24H569.412C569.203 277.24 569.035 277.409 569.035 277.617V278.152C569.035 278.36 569.203 278.529 569.412 278.529H570.807C571.015 278.529 571.184 278.36 571.184 278.152V277.617C571.184 277.409 571.015 277.24 570.807 277.24Z" fill="#E6E6E6"/>
<path d="M575.106 277.24H573.71C573.502 277.24 573.333 277.409 573.333 277.617V278.152C573.333 278.36 573.502 278.529 573.71 278.529H575.106C575.314 278.529 575.483 278.36 575.483 278.152V277.617C575.483 277.409 575.314 277.24 575.106 277.24Z" fill="#E6E6E6"/>
<path d="M579.404 277.24H578.009C577.801 277.24 577.632 277.409 577.632 277.617V278.152C577.632 278.36 577.801 278.529 578.009 278.529H579.404C579.613 278.529 579.781 278.36 579.781 278.152V277.617C579.781 277.409 579.613 277.24 579.404 277.24Z" fill="#E6E6E6"/>
<path d="M583.703 277.24H582.308C582.1 277.24 581.931 277.409 581.931 277.617V278.152C581.931 278.36 582.1 278.529 582.308 278.529H583.703C583.911 278.529 584.08 278.36 584.08 278.152V277.617C584.08 277.409 583.911 277.24 583.703 277.24Z" fill="#E6E6E6"/>
<path d="M588.002 277.24H586.607C586.398 277.24 586.23 277.409 586.23 277.617V278.152C586.23 278.36 586.398 278.529 586.607 278.529H588.002C588.21 278.529 588.379 278.36 588.379 278.152V277.617C588.379 277.409 588.21 277.24 588.002 277.24Z" fill="#E6E6E6"/>
<path d="M592.301 277.24H590.905C590.697 277.24 590.528 277.409 590.528 277.617V278.152C590.528 278.36 590.697 278.529 590.905 278.529H592.301C592.509 278.529 592.678 278.36 592.678 278.152V277.617C592.678 277.409 592.509 277.24 592.301 277.24Z" fill="#E6E6E6"/>
<path d="M596.6 277.24H595.204C594.996 277.24 594.827 277.409 594.827 277.617V278.152C594.827 278.36 594.996 278.529 595.204 278.529H596.6C596.808 278.529 596.977 278.36 596.977 278.152V277.617C596.977 277.409 596.808 277.24 596.6 277.24Z" fill="#E6E6E6"/>
<path d="M600.898 277.24H599.503C599.295 277.24 599.126 277.409 599.126 277.617V278.152C599.126 278.36 599.295 278.529 599.503 278.529H600.898C601.107 278.529 601.275 278.36 601.275 278.152V277.617C601.275 277.409 601.107 277.24 600.898 277.24Z" fill="#E6E6E6"/>
<path d="M605.197 277.24H603.802C603.593 277.24 603.425 277.409 603.425 277.617V278.152C603.425 278.36 603.593 278.529 603.802 278.529H605.197C605.405 278.529 605.574 278.36 605.574 278.152V277.617C605.574 277.409 605.405 277.24 605.197 277.24Z" fill="#E6E6E6"/>
<path d="M609.496 277.24H608.1C607.892 277.24 607.723 277.409 607.723 277.617V278.152C607.723 278.36 607.892 278.529 608.1 278.529H609.496C609.704 278.529 609.873 278.36 609.873 278.152V277.617C609.873 277.409 609.704 277.24 609.496 277.24Z" fill="#E6E6E6"/>
<path d="M613.795 277.24H612.399C612.191 277.24 612.022 277.409 612.022 277.617V278.152C612.022 278.36 612.191 278.529 612.399 278.529H613.795C614.003 278.529 614.172 278.36 614.172 278.152V277.617C614.172 277.409 614.003 277.24 613.795 277.24Z" fill="#E6E6E6"/>
<path d="M618.093 277.24H616.698C616.49 277.24 616.321 277.409 616.321 277.617V278.152C616.321 278.36 616.49 278.529 616.698 278.529H618.093C618.302 278.529 618.47 278.36 618.47 278.152V277.617C618.47 277.409 618.302 277.24 618.093 277.24Z" fill="#E6E6E6"/>
<path d="M622.392 277.24H620.997C620.789 277.24 620.62 277.409 620.62 277.617V278.152C620.62 278.36 620.789 278.529 620.997 278.529H622.392C622.6 278.529 622.769 278.36 622.769 278.152V277.617C622.769 277.409 622.6 277.24 622.392 277.24Z" fill="#E6E6E6"/>
<path d="M626.691 277.24H625.296C625.087 277.24 624.919 277.409 624.919 277.617V278.152C624.919 278.36 625.087 278.529 625.296 278.529H626.691C626.899 278.529 627.068 278.36 627.068 278.152V277.617C627.068 277.409 626.899 277.24 626.691 277.24Z" fill="#E6E6E6"/>
<path d="M630.99 277.24H629.594C629.386 277.24 629.217 277.409 629.217 277.617V278.152C629.217 278.36 629.386 278.529 629.594 278.529H630.99C631.198 278.529 631.367 278.36 631.367 278.152V277.617C631.367 277.409 631.198 277.24 630.99 277.24Z" fill="#E6E6E6"/>
<path d="M635.288 277.24H633.893C633.685 277.24 633.516 277.409 633.516 277.617V278.152C633.516 278.36 633.685 278.529 633.893 278.529H635.288C635.497 278.529 635.665 278.36 635.665 278.152V277.617C635.665 277.409 635.497 277.24 635.288 277.24Z" fill="#E6E6E6"/>
<path d="M570.756 279.388H569.361C569.153 279.388 568.984 279.557 568.984 279.765V280.3C568.984 280.508 569.153 280.677 569.361 280.677H570.756C570.964 280.677 571.133 280.508 571.133 280.3V279.765C571.133 279.557 570.964 279.388 570.756 279.388Z" fill="#E6E6E6"/>
<path d="M575.055 279.388H573.66C573.451 279.388 573.283 279.557 573.283 279.765V280.3C573.283 280.508 573.451 280.677 573.66 280.677H575.055C575.263 280.677 575.432 280.508 575.432 280.3V279.765C575.432 279.557 575.263 279.388 575.055 279.388Z" fill="#E6E6E6"/>
<path d="M579.354 279.388H577.958C577.75 279.388 577.581 279.557 577.581 279.765V280.3C577.581 280.508 577.75 280.677 577.958 280.677H579.354C579.562 280.677 579.731 280.508 579.731 280.3V279.765C579.731 279.557 579.562 279.388 579.354 279.388Z" fill="#E6E6E6"/>
<path d="M583.652 279.388H582.257C582.049 279.388 581.88 279.557 581.88 279.765V280.3C581.88 280.508 582.049 280.677 582.257 280.677H583.652C583.861 280.677 584.03 280.508 584.03 280.3V279.765C584.03 279.557 583.861 279.388 583.652 279.388Z" fill="#E6E6E6"/>
<path d="M587.951 279.388H586.556C586.348 279.388 586.179 279.557 586.179 279.765V280.3C586.179 280.508 586.348 280.677 586.556 280.677H587.951C588.159 280.677 588.328 280.508 588.328 280.3V279.765C588.328 279.557 588.159 279.388 587.951 279.388Z" fill="#E6E6E6"/>
<path d="M592.25 279.388H590.855C590.646 279.388 590.478 279.557 590.478 279.765V280.3C590.478 280.508 590.646 280.677 590.855 280.677H592.25C592.458 280.677 592.627 280.508 592.627 280.3V279.765C592.627 279.557 592.458 279.388 592.25 279.388Z" fill="#E6E6E6"/>
<path d="M596.549 279.388H595.153C594.945 279.388 594.776 279.557 594.776 279.765V280.3C594.776 280.508 594.945 280.677 595.153 280.677H596.549C596.757 280.677 596.926 280.508 596.926 280.3V279.765C596.926 279.557 596.757 279.388 596.549 279.388Z" fill="#E6E6E6"/>
<path d="M600.847 279.388H599.452C599.244 279.388 599.075 279.557 599.075 279.765V280.3C599.075 280.508 599.244 280.677 599.452 280.677H600.847C601.056 280.677 601.225 280.508 601.225 280.3V279.765C601.225 279.557 601.056 279.388 600.847 279.388Z" fill="#E6E6E6"/>
<path d="M605.146 279.388H603.751C603.543 279.388 603.374 279.557 603.374 279.765V280.3C603.374 280.508 603.543 280.677 603.751 280.677H605.146C605.354 280.677 605.523 280.508 605.523 280.3V279.765C605.523 279.557 605.354 279.388 605.146 279.388Z" fill="#E6E6E6"/>
<path d="M609.445 279.388H608.05C607.841 279.388 607.673 279.557 607.673 279.765V280.3C607.673 280.508 607.841 280.677 608.05 280.677H609.445C609.653 280.677 609.822 280.508 609.822 280.3V279.765C609.822 279.557 609.653 279.388 609.445 279.388Z" fill="#E6E6E6"/>
<path d="M613.744 279.388H612.349C612.14 279.388 611.971 279.557 611.971 279.765V280.3C611.971 280.508 612.14 280.677 612.349 280.677H613.744C613.952 280.677 614.121 280.508 614.121 280.3V279.765C614.121 279.557 613.952 279.388 613.744 279.388Z" fill="#E6E6E6"/>
<path d="M618.043 279.388H616.647C616.439 279.388 616.27 279.557 616.27 279.765V280.3C616.27 280.508 616.439 280.677 616.647 280.677H618.043C618.251 280.677 618.42 280.508 618.42 280.3V279.765C618.42 279.557 618.251 279.388 618.043 279.388Z" fill="#E6E6E6"/>
<path d="M622.341 279.388H620.946C620.738 279.388 620.569 279.557 620.569 279.765V280.3C620.569 280.508 620.738 280.677 620.946 280.677H622.341C622.55 280.677 622.718 280.508 622.718 280.3V279.765C622.718 279.557 622.55 279.388 622.341 279.388Z" fill="#E6E6E6"/>
<path d="M626.64 279.388H625.245C625.037 279.388 624.868 279.557 624.868 279.765V280.3C624.868 280.508 625.037 280.677 625.245 280.677H626.64C626.848 280.677 627.017 280.508 627.017 280.3V279.765C627.017 279.557 626.848 279.388 626.64 279.388Z" fill="#E6E6E6"/>
<path d="M630.939 279.388H629.544C629.335 279.388 629.167 279.557 629.167 279.765V280.3C629.167 280.508 629.335 280.677 629.544 280.677H630.939C631.147 280.677 631.316 280.508 631.316 280.3V279.765C631.316 279.557 631.147 279.388 630.939 279.388Z" fill="#E6E6E6"/>
<path d="M635.238 279.388H633.842C633.634 279.388 633.465 279.557 633.465 279.765V280.3C633.465 280.508 633.634 280.677 633.842 280.677H635.238C635.446 280.677 635.615 280.508 635.615 280.3V279.765C635.615 279.557 635.446 279.388 635.238 279.388Z" fill="#E6E6E6"/>
<path d="M606.436 281.966H589.995C589.787 281.966 589.618 282.135 589.618 282.343V282.878C589.618 283.086 589.787 283.255 589.995 283.255H606.436C606.644 283.255 606.813 283.086 606.813 282.878V282.343C606.813 282.135 606.644 281.966 606.436 281.966Z" fill="#E6E6E6"/>
<path d="M654.195 178.167H544.438C544.324 178.165 544.215 178.118 544.135 178.036C544.056 177.955 544.011 177.845 544.011 177.731C544.011 177.617 544.056 177.508 544.135 177.426C544.215 177.345 544.324 177.297 544.438 177.295H654.195C654.309 177.297 654.418 177.345 654.498 177.426C654.577 177.508 654.622 177.617 654.622 177.731C654.622 177.845 654.577 177.955 654.498 178.036C654.418 178.118 654.309 178.165 654.195 178.167Z" fill="#CACACA"/>
<path d="M551.909 175.068C553.322 175.068 554.467 173.898 554.467 172.455C554.467 171.011 553.322 169.841 551.909 169.841C550.496 169.841 549.351 171.011 549.351 172.455C549.351 173.898 550.496 175.068 551.909 175.068Z" fill="#CCCCCC"/>
<path d="M560.746 175.068C562.158 175.068 563.304 173.898 563.304 172.455C563.304 171.011 562.158 169.841 560.746 169.841C559.333 169.841 558.188 171.011 558.188 172.455C558.188 173.898 559.333 175.068 560.746 175.068Z" fill="#CCCCCC"/>
<path d="M569.582 175.068C570.995 175.068 572.14 173.898 572.14 172.455C572.14 171.011 570.995 169.841 569.582 169.841C568.17 169.841 567.024 171.011 567.024 172.455C567.024 173.898 568.17 175.068 569.582 175.068Z" fill="#CCCCCC"/>
<path d="M648.875 170.489H642.598C642.473 170.491 642.355 170.543 642.268 170.631C642.181 170.72 642.132 170.84 642.132 170.964C642.132 171.088 642.181 171.208 642.268 171.297C642.355 171.385 642.473 171.437 642.598 171.439H648.875C648.999 171.437 649.118 171.385 649.205 171.297C649.292 171.208 649.341 171.088 649.341 170.964C649.341 170.84 649.292 170.72 649.205 170.631C649.118 170.543 648.999 170.491 648.875 170.489H648.875Z" fill="#CCCCCC"/>
<path d="M648.875 172.272H642.598C642.473 172.274 642.355 172.326 642.268 172.414C642.181 172.503 642.132 172.623 642.132 172.747C642.132 172.871 642.181 172.991 642.268 173.079C642.355 173.168 642.473 173.219 642.598 173.222H648.875C648.999 173.219 649.118 173.168 649.205 173.079C649.292 172.991 649.341 172.871 649.341 172.747C649.341 172.623 649.292 172.503 649.205 172.414C649.118 172.326 648.999 172.274 648.875 172.272H648.875Z" fill="#CCCCCC"/>
<path d="M648.875 174.052H642.598C642.473 174.055 642.355 174.106 642.268 174.195C642.181 174.284 642.132 174.403 642.132 174.527C642.132 174.652 642.181 174.771 642.268 174.86C642.355 174.949 642.473 175 642.598 175.002H648.875C648.999 175 649.118 174.949 649.205 174.86C649.292 174.771 649.341 174.652 649.341 174.527C649.341 174.403 649.292 174.284 649.205 174.195C649.118 174.106 648.999 174.055 648.875 174.052H648.875Z" fill="#CCCCCC"/>
<path d="M608.178 201.932H594.464C593.433 201.932 592.598 202.766 592.598 203.796C592.598 204.825 593.433 205.66 594.464 205.66H608.178C609.208 205.66 610.044 204.825 610.044 203.796C610.044 202.766 609.208 201.932 608.178 201.932Z" fill="#6C63FF"/>
<path d="M617.038 209.388H585.604C584.574 209.388 583.739 210.222 583.739 211.252C583.739 212.281 584.574 213.116 585.604 213.116H617.038C618.068 213.116 618.903 212.281 618.903 211.252C618.903 210.222 618.068 209.388 617.038 209.388Z" fill="#E6E6E6"/>
<path d="M617.038 216.844H585.604C584.574 216.844 583.739 217.678 583.739 218.708C583.739 219.737 584.574 220.572 585.604 220.572H617.038C618.068 220.572 618.903 219.737 618.903 218.708C618.903 217.678 618.068 216.844 617.038 216.844Z" fill="#E6E6E6"/>
<path d="M405.26 333.002L398.938 329.979L407.623 303.57L416.954 308.029L405.26 333.002Z" fill="#FFB6B6"/>
<path d="M447.647 328.744C447.188 329.032 446.728 329.315 446.264 329.598C445.339 330.164 444.406 330.721 443.472 331.268C443.003 331.542 442.53 331.816 442.061 332.085V332.099L442.033 332.104L442.023 332.108L441.308 332.285L440.282 329.574L439.808 328.326L439.14 326.558L437.913 323.323L431.458 306.29L441.494 303.817L441.87 305.353H441.875L442.061 306.114L445.567 320.325L446.282 323.23L446.305 323.318L446.737 325.054L447.109 326.558L447.522 328.238L447.647 328.744Z" fill="#FFB6B6"/>
<path d="M507.515 268.929C506.879 269.95 506.229 270.966 505.574 271.973C504.357 273.848 503.108 275.695 501.826 277.515C501.826 277.519 501.821 277.519 501.817 277.524C501.069 278.216 500.243 278.819 499.356 279.32C499.318 279.348 499.277 279.366 499.239 279.39C498.586 279.751 497.89 280.03 497.168 280.22C496.908 280.285 496.643 280.35 496.383 280.415C495.445 280.638 494.516 280.828 493.592 280.995C491.948 281.288 490.323 281.497 488.707 281.627C488.577 281.641 488.447 281.65 488.317 281.659C481.671 282.146 475.202 281.362 468.449 280.076C465.115 279.445 461.711 278.689 458.186 277.904C457.034 277.645 455.878 277.389 454.707 277.134C454.619 277.116 454.526 277.092 454.433 277.074C452.761 276.707 451.062 276.345 449.32 275.988C447.128 275.538 444.867 275.101 442.517 274.688L442.684 277.997C442.823 280.543 443.352 283.052 444.254 285.437C445.257 288.37 446.051 290.691 444.374 295.522L443.566 297.861C443.985 299.023 444.129 300.265 443.986 301.492C443.844 302.718 443.419 303.895 442.744 304.929L442.582 305.175L449.32 322.213L449.757 323.317H446.306L442.062 323.322H434.868L424.488 302.511L423.991 301.518V301.467L425.064 261.475C425.078 261.122 425.106 260.765 425.152 260.412C425.342 258.809 425.849 257.259 426.644 255.853C427.438 254.448 428.506 253.215 429.783 252.226C431.006 251.27 432.408 250.567 433.906 250.157C435.404 249.748 436.969 249.64 438.509 249.84L442.062 250.3L449.32 251.237L454.433 251.901L454.535 251.915L469.615 253.864L470.697 249.455L470.897 249.381L477.245 247.055L499.202 239.012L499.258 238.994L500.702 238.465L500.874 238.743C500.925 238.827 500.976 238.91 501.023 238.994C502.45 241.551 503.613 244.248 504.492 247.042C505.97 251.605 507.187 256.249 508.137 260.951C508.179 261.155 508.216 261.341 508.249 261.508L508.263 261.559C508.277 261.638 508.286 261.689 508.291 261.703C508.726 264.136 508.457 266.643 507.515 268.929Z" fill="#2F2E41"/>
<path d="M508.442 254.191C508.372 253.894 508.284 253.592 508.191 253.3C507.454 251.085 506.595 248.913 505.618 246.793C504.522 244.38 503.208 241.794 501.643 238.996C500.886 237.641 500.072 236.231 499.2 234.768C498.764 234.035 498.31 233.287 497.839 232.526C497.821 232.491 497.801 232.457 497.779 232.424L497.644 232.201L475.919 235.107L467.829 236.188L467.347 240.217L467.23 241.214C467.226 241.214 467.226 241.214 467.23 241.219L466.905 243.939V243.943L466.473 247.535L466.436 247.531L454.431 245.976L442.06 244.375L435.414 243.516C433.874 243.316 432.309 243.423 430.811 243.833C429.313 244.242 427.911 244.946 426.688 245.902C425.411 246.891 424.344 248.124 423.549 249.53C422.754 250.936 422.247 252.485 422.058 254.089C422.016 254.414 421.988 254.748 421.974 255.077L415.704 269.924C411.953 278.803 409.564 288.197 408.618 297.789L404.02 312.478L404.675 312.538L414.418 313.443L416.991 313.684L422.657 305.419C423.302 304.477 423.915 303.507 424.486 302.513C425.427 300.891 426.263 299.211 426.99 297.482L439.245 268.337C440.193 268.499 441.131 268.654 442.06 268.801C446.355 269.497 450.479 270.065 454.431 270.504C467.281 271.938 478.409 272.049 488.314 270.834C491.096 270.495 493.785 270.049 496.381 269.497C497.333 269.297 498.273 269.082 499.2 268.852C499.418 268.801 499.632 268.75 499.846 268.694C501.765 268.199 503.53 267.232 504.978 265.879C506.426 264.527 507.512 262.833 508.135 260.953C508.88 258.774 508.986 256.428 508.442 254.191Z" fill="#2F2E41"/>
<path d="M407.28 328.689L400.439 325.412L399.367 324.897L397.653 329.102L385.69 331.733C385.098 331.863 384.564 332.178 384.164 332.633C383.765 333.088 383.521 333.658 383.469 334.261C383.418 334.864 383.56 335.468 383.876 335.984C384.192 336.5 384.665 336.902 385.225 337.131L396.915 341.897L400.625 338.56L399.715 343.039L404.117 344.835L408.943 329.487L407.28 328.689Z" fill="#2F2E41"/>
<path d="M449.32 322.213L449.757 323.317H449.32V322.213Z" fill="#2F2E41"/>
<path d="M446.938 323.553L439.77 326.035L438.645 326.424L440.388 330.616L433.74 340.898C433.411 341.406 433.253 342.006 433.289 342.61C433.326 343.214 433.554 343.791 433.942 344.256C434.33 344.721 434.856 345.05 435.444 345.194C436.032 345.339 436.651 345.292 437.21 345.06L448.872 340.228L449.159 335.247L451.666 339.07L456.059 337.25L448.681 322.952L446.938 323.553Z" fill="#2F2E41"/>
<path d="M403.433 169.994C403.773 170.655 404.254 171.235 404.842 171.691C405.43 172.146 406.111 172.468 406.837 172.632C407.562 172.797 408.316 172.8 409.043 172.642C409.77 172.484 410.454 172.169 411.046 171.718L426.119 181.718L426.147 172.323L411.83 164.268C411.006 163.324 409.865 162.714 408.622 162.555C407.379 162.396 406.121 162.698 405.086 163.403C404.051 164.109 403.311 165.17 403.007 166.385C402.702 167.599 402.854 168.883 403.433 169.994V169.994Z" fill="#FFB6B6"/>
<path d="M414.693 174.336L421.725 166.341L450.359 183.328L488.316 179.855C490.192 179.683 492.083 179.926 493.854 180.567C495.626 181.208 497.234 182.231 498.566 183.563C499.898 184.895 500.919 186.503 501.559 188.274C502.198 190.045 502.44 191.935 502.266 193.81C501.949 197.196 500.301 200.318 497.683 202.491C495.065 204.663 491.692 205.71 488.303 205.4L445.555 201.446L414.693 174.336Z" fill="#CCCCCC"/>
<path d="M502.79 174.46L502.724 174.377C497.384 173.85 492.006 174.883 487.242 177.35C482.478 179.817 478.533 183.612 475.884 188.275L472.663 193.945C462.243 206.675 469.815 215.454 470.268 216.76L466.651 233.424L467.462 239.002L467.867 240.658L509.151 262.216C511.501 250.93 509.228 241.313 500.665 233.966L508.95 208.204C510.787 202.508 511.186 196.446 510.111 190.559C509.036 184.671 506.521 179.141 502.79 174.46Z" fill="#CCCCCC"/>
<path d="M469.964 299.616H456.722C455.993 299.616 455.289 299.353 454.74 298.875C454.19 298.398 453.831 297.738 453.729 297.017C452.911 291.004 452.911 284.908 453.729 278.895C453.83 278.183 454.181 277.531 454.721 277.054C455.26 276.578 455.951 276.31 456.671 276.297C460.837 274.431 465.324 274.431 470.01 276.297C470.446 276.303 470.876 276.404 471.269 276.593C471.662 276.783 472.009 277.056 472.285 277.393C472.573 277.745 472.779 278.155 472.888 278.596C472.997 279.037 473.007 279.497 472.916 279.942C471.852 285.232 471.852 290.681 472.916 295.971C473.007 296.416 472.997 296.876 472.888 297.316C472.779 297.757 472.573 298.168 472.285 298.519C472.004 298.863 471.65 299.14 471.248 299.329C470.847 299.519 470.408 299.617 469.964 299.616Z" fill="#6C63FF"/>
<path d="M468.577 283.206H457.431C457.339 283.207 457.248 283.189 457.163 283.155C457.078 283.12 457 283.069 456.935 283.004C456.869 282.939 456.818 282.862 456.782 282.777C456.747 282.693 456.729 282.602 456.729 282.51C456.729 282.418 456.747 282.327 456.782 282.242C456.818 282.157 456.869 282.08 456.935 282.015C457 281.95 457.078 281.899 457.163 281.865C457.248 281.83 457.339 281.813 457.431 281.814H468.577C468.669 281.813 468.76 281.83 468.846 281.865C468.931 281.899 469.008 281.95 469.074 282.015C469.139 282.08 469.191 282.157 469.226 282.242C469.262 282.327 469.28 282.418 469.28 282.51C469.28 282.602 469.262 282.693 469.226 282.777C469.191 282.862 469.139 282.939 469.074 283.004C469.008 283.069 468.931 283.12 468.846 283.155C468.76 283.189 468.669 283.207 468.577 283.206Z" fill="white"/>
<path d="M468.577 288.775H457.431C457.339 288.776 457.248 288.759 457.163 288.724C457.078 288.689 457 288.638 456.935 288.573C456.869 288.509 456.818 288.432 456.782 288.347C456.747 288.262 456.729 288.171 456.729 288.079C456.729 287.987 456.747 287.896 456.782 287.811C456.818 287.726 456.869 287.649 456.935 287.585C457 287.52 457.078 287.469 457.163 287.434C457.248 287.399 457.339 287.382 457.431 287.383H468.577C468.669 287.382 468.76 287.399 468.846 287.434C468.931 287.469 469.008 287.52 469.074 287.585C469.139 287.649 469.191 287.726 469.226 287.811C469.262 287.896 469.28 287.987 469.28 288.079C469.28 288.171 469.262 288.262 469.226 288.347C469.191 288.432 469.139 288.509 469.074 288.573C469.008 288.638 468.931 288.689 468.846 288.724C468.76 288.759 468.669 288.776 468.577 288.775Z" fill="white"/>
<path d="M468.577 294.345H457.431C457.339 294.345 457.248 294.328 457.163 294.293C457.077 294.259 457 294.208 456.935 294.143C456.869 294.078 456.817 294.001 456.782 293.916C456.746 293.831 456.728 293.74 456.728 293.648C456.728 293.556 456.746 293.465 456.782 293.38C456.817 293.296 456.869 293.218 456.935 293.154C457 293.089 457.077 293.038 457.163 293.003C457.248 292.969 457.339 292.951 457.431 292.952H468.577C468.669 292.951 468.76 292.969 468.846 293.003C468.931 293.038 469.009 293.089 469.074 293.154C469.139 293.218 469.191 293.296 469.227 293.38C469.262 293.465 469.28 293.556 469.28 293.648C469.28 293.74 469.262 293.831 469.227 293.916C469.191 294.001 469.139 294.078 469.074 294.143C469.009 294.208 468.931 294.259 468.846 294.293C468.76 294.328 468.669 294.345 468.577 294.345Z" fill="white"/>
<path d="M405.861 174.581H392.618C391.89 174.58 391.186 174.317 390.636 173.839C390.087 173.362 389.728 172.702 389.625 171.982C388.808 165.969 388.808 159.873 389.625 153.86C389.726 153.148 390.078 152.495 390.617 152.019C391.157 151.542 391.848 151.274 392.568 151.261C396.734 149.395 401.221 149.395 405.906 151.261C406.343 151.267 406.773 151.368 407.166 151.557C407.559 151.747 407.905 152.02 408.182 152.358C408.47 152.709 408.676 153.12 408.785 153.561C408.894 154.001 408.904 154.461 408.813 154.906C407.749 160.196 407.749 165.645 408.813 170.935C408.904 171.38 408.894 171.84 408.785 172.281C408.676 172.722 408.47 173.133 408.182 173.484C407.901 173.827 407.547 174.104 407.145 174.294C406.744 174.483 406.305 174.581 405.861 174.581Z" fill="#6C63FF"/>
<path d="M404.474 158.17H393.328C393.236 158.171 393.145 158.154 393.06 158.119C392.974 158.084 392.897 158.033 392.832 157.968C392.766 157.904 392.714 157.827 392.679 157.742C392.644 157.657 392.625 157.566 392.625 157.474C392.625 157.382 392.644 157.291 392.679 157.206C392.714 157.121 392.766 157.044 392.832 156.98C392.897 156.915 392.974 156.864 393.06 156.829C393.145 156.794 393.236 156.777 393.328 156.778H404.474C404.566 156.777 404.657 156.794 404.742 156.829C404.828 156.864 404.905 156.915 404.97 156.98C405.036 157.044 405.088 157.121 405.123 157.206C405.158 157.291 405.177 157.382 405.177 157.474C405.177 157.566 405.158 157.657 405.123 157.742C405.088 157.827 405.036 157.904 404.97 157.968C404.905 158.033 404.828 158.084 404.742 158.119C404.657 158.154 404.566 158.171 404.474 158.17Z" fill="white"/>
<path d="M404.474 163.74H393.328C393.236 163.74 393.145 163.723 393.06 163.688C392.974 163.654 392.897 163.603 392.832 163.538C392.766 163.473 392.714 163.396 392.679 163.311C392.644 163.226 392.625 163.135 392.625 163.043C392.625 162.951 392.644 162.86 392.679 162.776C392.714 162.691 392.766 162.614 392.832 162.549C392.897 162.484 392.974 162.433 393.06 162.398C393.145 162.364 393.236 162.346 393.328 162.347H404.474C404.566 162.346 404.657 162.364 404.742 162.398C404.828 162.433 404.905 162.484 404.97 162.549C405.036 162.614 405.088 162.691 405.123 162.776C405.158 162.86 405.177 162.951 405.177 163.043C405.177 163.135 405.158 163.226 405.123 163.311C405.088 163.396 405.036 163.473 404.97 163.538C404.905 163.603 404.828 163.654 404.742 163.688C404.657 163.723 404.566 163.74 404.474 163.74Z" fill="white"/>
<path d="M404.474 169.309H393.328C393.236 169.31 393.145 169.292 393.06 169.258C392.974 169.223 392.897 169.172 392.831 169.107C392.766 169.043 392.714 168.966 392.679 168.881C392.643 168.796 392.625 168.705 392.625 168.613C392.625 168.521 392.643 168.43 392.679 168.345C392.714 168.26 392.766 168.183 392.831 168.118C392.897 168.053 392.974 168.002 393.06 167.968C393.145 167.933 393.236 167.916 393.328 167.917H404.474C404.566 167.916 404.657 167.933 404.743 167.968C404.828 168.002 404.905 168.053 404.971 168.118C405.036 168.183 405.088 168.26 405.124 168.345C405.159 168.43 405.177 168.521 405.177 168.613C405.177 168.705 405.159 168.796 405.124 168.881C405.088 168.966 405.036 169.043 404.971 169.107C404.905 169.172 404.828 169.223 404.743 169.258C404.657 169.292 404.566 169.31 404.474 169.309Z" fill="white"/>
<path d="M173.39 208.541H160.148C159.419 208.54 158.716 208.277 158.166 207.8C157.616 207.322 157.257 206.663 157.155 205.942C156.337 199.929 156.337 193.833 157.155 187.82C157.256 187.108 157.608 186.455 158.147 185.979C158.686 185.503 159.377 185.234 160.097 185.222C164.264 183.355 168.75 183.355 173.436 185.221C173.872 185.227 174.302 185.328 174.695 185.518C175.088 185.707 175.435 185.98 175.711 186.318C175.999 186.669 176.205 187.08 176.314 187.521C176.424 187.962 176.433 188.421 176.342 188.866C175.279 194.156 175.279 199.605 176.342 204.896C176.433 205.341 176.424 205.8 176.314 206.241C176.205 206.682 175.999 207.093 175.711 207.444C175.43 207.788 175.076 208.064 174.674 208.254C174.273 208.444 173.834 208.542 173.39 208.541Z" fill="#6C63FF"/>
<path d="M172.003 192.131H160.858C160.766 192.131 160.674 192.114 160.589 192.079C160.504 192.045 160.426 191.994 160.361 191.929C160.296 191.864 160.244 191.787 160.208 191.702C160.173 191.617 160.155 191.526 160.155 191.434C160.155 191.343 160.173 191.251 160.208 191.167C160.244 191.082 160.296 191.005 160.361 190.94C160.426 190.875 160.504 190.824 160.589 190.79C160.674 190.755 160.766 190.737 160.858 190.738H172.003C172.095 190.737 172.187 190.755 172.272 190.79C172.357 190.824 172.435 190.875 172.5 190.94C172.565 191.005 172.617 191.082 172.652 191.167C172.688 191.251 172.706 191.343 172.706 191.434C172.706 191.526 172.688 191.617 172.652 191.702C172.617 191.787 172.565 191.864 172.5 191.929C172.435 191.994 172.357 192.045 172.272 192.079C172.187 192.114 172.095 192.131 172.003 192.131Z" fill="white"/>
<path d="M172.003 197.7H160.858C160.766 197.701 160.674 197.683 160.589 197.649C160.504 197.614 160.426 197.563 160.361 197.498C160.296 197.434 160.244 197.357 160.208 197.272C160.173 197.187 160.155 197.096 160.155 197.004C160.155 196.912 160.173 196.821 160.208 196.736C160.244 196.651 160.296 196.574 160.361 196.509C160.426 196.445 160.504 196.393 160.589 196.359C160.674 196.324 160.766 196.307 160.858 196.308H172.003C172.095 196.307 172.187 196.324 172.272 196.359C172.357 196.393 172.435 196.445 172.5 196.509C172.565 196.574 172.617 196.651 172.652 196.736C172.688 196.821 172.706 196.912 172.706 197.004C172.706 197.096 172.688 197.187 172.652 197.272C172.617 197.357 172.565 197.434 172.5 197.498C172.435 197.563 172.357 197.614 172.272 197.649C172.187 197.683 172.095 197.701 172.003 197.7Z" fill="white"/>
<path d="M172.003 203.269H160.858C160.766 203.27 160.674 203.253 160.589 203.218C160.504 203.183 160.426 203.132 160.361 203.068C160.295 203.003 160.243 202.926 160.208 202.841C160.173 202.756 160.154 202.665 160.154 202.573C160.154 202.481 160.173 202.39 160.208 202.305C160.243 202.22 160.295 202.143 160.361 202.078C160.426 202.014 160.504 201.962 160.589 201.928C160.674 201.893 160.766 201.876 160.858 201.877H172.003C172.095 201.876 172.187 201.893 172.272 201.928C172.357 201.962 172.435 202.014 172.5 202.078C172.566 202.143 172.617 202.22 172.653 202.305C172.688 202.39 172.707 202.481 172.707 202.573C172.707 202.665 172.688 202.756 172.653 202.841C172.617 202.926 172.566 203.003 172.5 203.068C172.435 203.132 172.357 203.183 172.272 203.218C172.187 203.253 172.095 203.27 172.003 203.269Z" fill="white"/>
<path d="M473.844 282.699C474.485 282.321 475.035 281.807 475.455 281.193C475.876 280.58 476.156 279.881 476.278 279.147C476.399 278.414 476.358 277.662 476.157 276.946C475.956 276.23 475.6 275.566 475.115 275.002L484.209 259.373L474.823 259.902L467.626 274.663C466.732 275.54 466.191 276.715 466.106 277.964C466.02 279.213 466.397 280.45 467.163 281.441C467.929 282.432 469.033 283.107 470.264 283.339C471.496 283.571 472.769 283.343 473.844 282.699V282.699Z" fill="#FFB6B6"/>
<path d="M477.514 271.209L469.11 264.668L484.38 235.095L478.658 197.436C478.376 195.575 478.506 193.674 479.041 191.869C479.576 190.064 480.503 188.398 481.754 186.991C483.006 185.583 484.552 184.469 486.283 183.725C488.014 182.982 489.888 182.629 491.771 182.691C495.171 182.807 498.388 184.266 500.713 186.749C503.039 189.231 504.284 192.535 504.176 195.934L502.762 238.813L477.514 271.209Z" fill="#CCCCCC"/>
<path d="M71.3517 263.129C71.881 262.597 72.2872 261.956 72.5417 261.251C72.7962 260.545 72.8928 259.793 72.8248 259.046C72.7567 258.299 72.5256 257.576 72.1478 256.928C71.7699 256.28 71.2545 255.723 70.6379 255.296L78.8106 214.728L69.7853 217.624L63.2434 256.863C62.5937 257.946 62.3641 259.229 62.598 260.47C62.8319 261.711 63.5132 262.823 64.5126 263.595C65.512 264.367 66.7602 264.747 68.0207 264.661C69.2812 264.575 70.4664 264.03 71.3517 263.129H71.3517Z" fill="#9E616A"/>
<path d="M83.4193 177.299L77.8196 173.075C77.8196 173.075 72.8797 172.725 72.0048 181.628C71.1299 190.531 69.3334 207.88 69.3334 207.88L60.7646 247.542L72.6262 250.144L81.8039 207.342L87.3097 194.632L83.4193 177.299Z" fill="#CCCCCC"/>
<path d="M74.1875 242.062L105.742 241.536L108.372 219.988H74.1875V242.062Z" fill="#9E616A"/>
<path d="M102.587 374.665H109.871L113.337 346.585L102.585 346.586L102.587 374.665Z" fill="#9E616A"/>
<path d="M56.9498 375.339L64.2344 375.287L67.5029 347.185L58.0288 349.356L56.9498 375.339Z" fill="#9E616A"/>
<path d="M79.7336 201.431L78.0831 205.719L78.4129 210.008L110.717 221.19L109.114 202.42L105.483 198.131L79.7336 201.431Z" fill="#FFB6B6"/>
<path d="M93.5923 162.836C99.9644 162.836 105.13 157.674 105.13 151.306C105.13 144.938 99.9644 139.776 93.5923 139.776C87.2202 139.776 82.0546 144.938 82.0546 151.306C82.0546 157.674 87.2202 162.836 93.5923 162.836Z" fill="#9E616A"/>
<path d="M100.78 371.074L112.295 370.387V375.317L123.244 382.873C123.784 383.247 124.192 383.783 124.406 384.404C124.62 385.024 124.63 385.697 124.435 386.324C124.239 386.951 123.848 387.499 123.319 387.889C122.789 388.278 122.15 388.488 121.492 388.488H107.783L105.42 383.611L104.497 388.488H99.3279L100.78 371.074Z" fill="#2F2E41"/>
<path d="M54.4579 371.765L65.9684 370.998L66.0029 375.928L77.0037 383.407C77.547 383.777 77.9581 384.31 78.1767 384.929C78.3953 385.549 78.4102 386.222 78.219 386.85C78.0278 387.478 77.6407 388.029 77.1141 388.422C76.5875 388.815 75.949 389.029 75.2919 389.034L61.5825 389.13L59.1854 384.269L58.2969 389.153L53.1279 389.189L54.4579 371.765Z" fill="#2F2E41"/>
<path d="M54.6831 353.81L59.9875 311.438L66.2986 266.764C61.6769 258.187 72.0836 231.551 72.0836 231.551L73.5526 231.621L106.801 237.89L106.794 237.858C113.595 256.394 115.848 265.551 115.475 285.29L114.135 356.248H114.556C115.253 356.248 115.922 356.525 116.415 357.017C116.908 357.51 117.185 358.179 117.185 358.876C117.185 359.573 116.908 360.241 116.415 360.734C115.922 361.227 115.253 361.503 114.556 361.503H101.408C101.062 361.504 100.719 361.437 100.4 361.305C100.08 361.173 99.79 360.979 99.5453 360.735C99.3006 360.491 99.1065 360.201 98.9741 359.882C98.8417 359.563 98.7735 359.221 98.7735 358.876C98.7735 358.53 98.8417 358.188 98.9741 357.869C99.1065 357.55 99.3006 357.26 99.5453 357.016C99.79 356.772 100.08 356.578 100.4 356.446C100.719 356.315 101.062 356.247 101.408 356.248H101.747L89.6784 271.758L79.4465 307.234L67.8763 353.484C72.0836 352.433 71.4304 354.868 71.4304 356.248C71.4304 356.945 71.1533 357.613 70.6602 358.106C70.167 358.599 69.4982 358.876 68.8008 358.876H55.6529C55.0414 358.876 54.4488 358.664 53.9773 358.274C53.5058 357.885 53.185 357.344 53.0701 356.744C52.9552 356.144 53.0535 355.522 53.3479 354.986C53.6424 354.451 54.1146 354.035 54.6832 353.81H54.6831Z" fill="#2F2E41"/>
<path d="M69.4948 232.931L70.5467 222.419C70.6559 221.99 70.8982 221.607 71.2388 221.324C71.5794 221.042 72.0008 220.874 72.4427 220.845C72.8809 215.838 74.7248 194.236 74.835 193.294L74.8393 193.254L75.6777 175.354C75.7082 174.704 75.9772 174.088 76.4334 173.624C76.8896 173.159 77.501 172.879 78.1509 172.836L82.5795 172.547C82.6403 172.545 82.6978 172.52 82.7401 172.476C82.7823 172.432 82.806 172.374 82.806 172.313C82.806 171.824 82.9023 171.34 83.0895 170.889C83.2766 170.437 83.5509 170.027 83.8968 169.681C84.2426 169.336 84.6531 169.062 85.105 168.875C85.5568 168.688 86.0411 168.591 86.5302 168.591H99.6419C100.491 168.592 101.311 168.902 101.948 169.463C102.585 170.025 102.994 170.8 103.1 171.642C103.106 171.7 103.133 171.753 103.177 171.792C103.221 171.83 103.277 171.851 103.336 171.85H103.337C104.827 171.819 106.279 172.323 107.428 173.271C108.578 174.218 109.35 175.546 109.604 177.013C111.396 187.436 114.989 211.091 113.213 224.243C112.594 228.821 113.927 225.195 114.161 229.025C114.184 229.395 114.134 229.766 114.014 230.117C113.893 230.468 113.704 230.792 113.459 231.069C113.962 231.252 114.373 231.626 114.602 232.11C114.831 232.594 114.86 233.148 114.683 233.653L114.913 233.596C114.846 233.864 114.726 234.116 114.561 234.337C114.396 234.559 114.19 234.746 113.952 234.887C113.715 235.029 113.452 235.122 113.179 235.162C112.906 235.202 112.627 235.188 112.359 235.121L78.0559 239.766C76.9293 239.482 69.2108 234.056 69.4948 232.931Z" fill="#CCCCCC"/>
<path d="M161.158 190.193C160.943 190.912 160.573 191.574 160.075 192.135C159.576 192.695 158.96 193.139 158.271 193.436C157.581 193.732 156.836 193.874 156.085 193.852C155.335 193.829 154.599 193.642 153.929 193.305L140.668 205.4L138.907 196.091L151.779 186.063C152.421 184.976 153.44 184.161 154.642 183.775C155.845 183.388 157.148 183.456 158.304 183.965C159.46 184.474 160.389 185.389 160.915 186.537C161.441 187.685 161.528 188.986 161.158 190.193H161.158Z" fill="#9E616A"/>
<path d="M115.001 180.948C115.001 180.948 110.376 170.505 104.536 172.581C98.6955 174.656 101.711 184.789 101.711 184.789L123.654 217.832C123.654 217.832 155.303 197.543 151.454 197.4C147.606 197.256 146.455 190.261 146.455 190.261L129.727 198.614L129.161 195.64L128.254 196.547L125.913 194.705L115.001 180.948Z" fill="#CCCCCC"/>
<path d="M493.272 169.476C502.169 169.476 509.381 162.269 509.381 153.378C509.381 144.488 502.169 137.28 493.272 137.28C484.376 137.28 477.164 144.488 477.164 153.378C477.164 162.269 484.376 169.476 493.272 169.476Z" fill="#FFB6B6"/>
<path d="M544.969 177.066C543.11 179.698 540.397 181.607 537.29 182.469C536.047 182.838 534.763 183.056 533.468 183.117C533.308 181.653 532.924 180.222 532.331 178.873C532.391 180.309 532.192 181.743 531.742 183.108C529.796 182.997 527.893 182.488 526.153 181.611C524.444 180.752 522.958 179.506 521.814 177.973C520.671 176.44 519.9 174.661 519.564 172.779C518.882 168.375 520.879 164.052 521.601 159.655C522.327 155.259 520.965 149.691 516.659 148.535C513.379 147.655 513.747 148.035 511.02 150.058C513.856 154.249 503.381 169.605 499.095 168.266C496.671 167.509 495.119 165.287 494.619 165.287C491.25 171.087 497.594 180.86 491.2 182.889L491.727 182.363C495.586 177.619 487.52 167.578 491.379 162.834C492.456 161.506 493.602 159.933 493.284 158.255C492.983 156.659 490.448 155.815 489.706 157.126C491.041 154.07 489.07 149.992 485.807 149.207C482.909 148.509 482.962 149.369 480.053 149.744C479.863 148.487 479.508 147.262 478.996 146.099C479.05 147.352 478.903 148.606 478.562 149.813C477.535 149.793 476.543 149.435 475.74 148.793C473.368 146.883 473.848 142.871 475.965 140.682C478.085 138.494 481.236 137.706 484.24 137.196C485.114 131.118 501.896 130.484 504.12 136.558C505.068 132.022 510.749 129.668 515.165 131.075C519.581 132.482 522.645 136.604 524.258 140.947C525.871 145.288 526.322 149.959 527.316 154.481C528.31 159.003 529.989 163.608 533.448 166.69C536.906 169.769 542.541 170.789 546.185 167.929C546.715 169.44 546.881 171.055 546.67 172.642C546.458 174.23 545.876 175.745 544.969 177.066Z" fill="#2F2E41"/>
<path d="M696.095 213.801L693.84 225.108C693.67 225.973 693.492 226.853 693.299 227.725C691.414 227.335 689.46 227.444 687.63 228.041C689.082 230.114 690.383 232.289 691.523 234.548C690.102 238.924 688.016 242.968 684.526 245.894C682.194 247.804 679.409 249.082 676.44 249.603C673.471 250.125 670.417 249.874 667.573 248.873L667.673 248.425C663.92 241.147 665.959 231.97 670.624 225.247C673.003 221.931 675.822 218.953 679.003 216.395C682.155 213.77 685.56 211.416 688.936 209.093C689.694 208.572 690.59 208.289 691.51 208.28C692.43 208.27 693.332 208.535 694.1 209.04C694.869 209.546 695.469 210.269 695.824 211.117C696.18 211.965 696.274 212.899 696.095 213.801Z" fill="#E4E4E4"/>
<path d="M668.376 276.08C667.427 269.169 666.451 262.171 667.116 255.187C667.708 248.985 669.601 242.927 673.456 237.959C675.503 235.327 677.993 233.073 680.814 231.296C681.55 230.833 682.227 231.998 681.495 232.459C676.613 235.543 672.837 240.096 670.711 245.462C668.363 251.43 667.986 257.936 668.394 264.275C668.639 268.108 669.157 271.916 669.68 275.721C669.722 275.893 669.697 276.075 669.609 276.229C669.521 276.383 669.378 276.498 669.209 276.55C669.036 276.596 668.852 276.573 668.697 276.485C668.542 276.397 668.427 276.251 668.379 276.079L668.376 276.08Z" fill="#F2F2F2"/>
<path d="M722.08 389.763L0.919624 390C0.676193 389.999 0.442979 389.902 0.271096 389.73C0.0992129 389.558 0.00268555 389.324 0.00268555 389.081C0.00268555 388.838 0.0992129 388.604 0.271096 388.432C0.442979 388.26 0.676193 388.163 0.919624 388.162L722.08 387.925C722.324 387.926 722.557 388.023 722.729 388.195C722.901 388.367 722.997 388.601 722.997 388.844C722.997 389.087 722.901 389.32 722.729 389.493C722.557 389.665 722.324 389.762 722.08 389.763Z" fill="#CACACA"/>
<path d="M80.013 144.246C78.2435 145.095 76.2626 143.818 74.7349 142.553L75.2814 143.024C72.5814 145.65 71.319 149.427 70.7022 153.145C70.0847 156.859 70.0159 160.657 69.2385 164.345C68.4605 168.029 66.8466 171.73 63.832 173.986C59.7935 177.009 54.2236 176.815 49.2676 175.888C49.2015 175.875 49.14 175.865 49.074 175.851C50.4075 172.003 50.9496 167.926 50.6677 163.864C49.3392 167.935 47.0777 171.639 44.0633 174.682C40.7774 173.778 37.57 172.611 34.4727 171.19C32.4686 170.268 30.3107 169.007 29.7545 166.873C29.1969 164.755 30.4917 162.533 32.2232 161.196C33.9546 159.858 36.0797 159.16 38.0522 158.208C40.0215 157.259 41.9702 155.907 42.7587 153.866C44.5773 149.17 39.3966 143.782 41.4156 139.166C42.4113 136.896 44.85 135.661 47.1421 134.709C50.6414 133.26 54.2346 132.049 57.8973 131.084C61.1127 130.236 64.47 129.578 67.7454 130.133C71.0209 130.689 74.2299 132.68 75.4088 135.788C77.3758 136.453 79.4641 137.202 80.7265 138.856C81.9882 140.507 81.8865 143.349 80.013 144.246Z" fill="#2F2E41"/>
<path d="M95.7579 138.805C90.6957 134.811 86.6027 135.493 83.4453 137.974C82.9144 137.384 80.6555 139.007 79.8907 138.774L77.1243 143.964C75.7008 146.474 75.1168 149.037 75.3469 150.479C72.7284 157.817 78.9378 162.773 86.2811 165.39C89.2112 166.441 92.4082 166.487 95.3676 165.521L95.4578 164.271L96.0139 165.295C96.0139 165.295 102.727 179.109 104.313 179.729C103.351 177.234 100.812 165.375 100.104 162.902C99.1318 159.539 99.7956 154.195 100.367 150.919C100.723 148.899 100.741 146.834 100.422 144.808L100.408 144.72L101.978 147.888L105.502 145.674C104.156 141.753 104.129 137.064 95.7579 138.805Z" fill="#2F2E41"/>
</g>
<defs>
<clipPath id="clip0_1_79">
<rect width="723" height="390" fill="white"/>
</clipPath>
</defs>
</svg>
