<svg width="138" height="138" viewBox="0 0 138 138" fill="none" xmlns="http://www.w3.org/2000/svg">
<path d="M0 120.206C0 130.034 7.9668 138 17.7939 138H120.206C130.034 138 138 130.033 138 120.206V17.7945C138 7.96573 130.033 0 120.206 0H17.7945C7.96573 0 0 7.9668 0 17.7939V120.206V120.206Z" fill="#563D7C"/>
<path d="M57.2264 61.0424V41.4997H74.4284C76.0672 41.4997 77.6466 41.6361 79.1678 41.9094C80.6891 42.1822 82.0351 42.6695 83.2054 43.3719C84.3752 44.0743 85.3115 45.0495 86.0139 46.2974C86.7158 47.5459 87.0673 49.1453 87.0673 51.095C87.0673 54.606 86.0139 57.1417 83.9073 58.7018C81.8012 60.2623 79.1096 61.0424 75.8327 61.0424H57.2264V61.0424ZM38.8535 27.2227V110.777H79.3436C83.0884 110.777 86.7357 110.309 90.2855 109.373C93.8352 108.437 96.9946 106.994 99.7643 105.043C102.534 103.093 104.738 100.577 106.376 97.4954C108.015 94.4136 108.834 90.7663 108.834 86.5535C108.834 81.3262 107.566 76.8601 105.03 73.1546C102.495 69.4485 98.6523 66.8545 93.5031 65.3721C97.248 63.5781 100.076 61.2763 101.988 58.4678C103.899 55.6593 104.855 52.1489 104.855 47.9356C104.855 44.0349 104.211 40.7585 102.924 38.1058C101.637 35.4536 99.8226 33.3275 97.482 31.7281C95.1419 30.1287 92.3334 28.9778 89.0564 28.276C85.78 27.5736 82.1521 27.2227 78.1733 27.2227H38.8535V27.2227ZM57.2264 96.5003V73.5637H77.2369C81.2157 73.5637 84.4145 74.4801 86.8333 76.314C89.2515 78.1473 90.4612 81.2092 90.4612 85.5002C90.4612 87.685 90.0903 89.479 89.3491 90.8832C88.6079 92.2875 87.6133 93.3996 86.3649 94.2184C85.1169 95.0378 83.6733 95.6227 82.0351 95.9741C80.3964 96.3245 78.6805 96.5003 76.886 96.5003H57.2264V96.5003Z" fill="white"/>
</svg>
