<svg width="107" height="121" viewBox="0 0 107 121" fill="none" xmlns="http://www.w3.org/2000/svg">
<path d="M9.68588 108.679L0 0H106.467L96.7682 108.662L53.1688 120.75L9.68588 108.679Z" fill="#1572B6"/>
<path d="M53.2344 111.513L88.4675 101.745L96.7561 8.88818H53.2344V111.513Z" fill="#33A9DC"/>
<path d="M53.2344 48.2612H70.8725L72.0886 34.6122H53.2344V21.2822H86.6562L86.3371 24.8573L83.0639 61.5912H53.2344V48.2612V48.2612Z" fill="white"/>
<path d="M53.3165 82.8776L53.2561 82.8948L38.4125 78.8842L37.4637 68.2539H24.082L25.9493 89.1825L53.2518 96.7638L53.3165 96.7466V82.8776V82.8776Z" fill="#EBEBEB"/>
<path d="M69.739 61.0264L68.1347 78.8758L53.2695 82.8864V96.7554L80.5935 89.1827L80.7962 86.9316L83.112 61.0264H69.739Z" fill="white"/>
<path d="M53.2823 21.2822V34.6122H21.0852L20.8178 31.615L20.2098 24.8573L19.8906 21.2822H53.2823V21.2822Z" fill="#EBEBEB"/>
<path d="M53.2352 48.2612V61.5912H38.577L38.3096 58.594L37.7058 51.8363L37.3867 48.2612H53.2352Z" fill="#EBEBEB"/>
</svg>
