<svg width="138" height="138" viewBox="0 0 138 138" fill="none" xmlns="http://www.w3.org/2000/svg">
<path d="M92 92C104.703 92 115 81.7025 115 69C115 56.2975 104.703 46 92 46C79.2975 46 69 56.2975 69 69C69 81.7025 79.2975 92 92 92Z" fill="#19BCFE"/>
<path fill-rule="evenodd" clip-rule="evenodd" d="M46 138C52.1 138 57.9501 135.577 62.2635 131.263C66.5768 126.95 69 121.1 69 115V92H46C39.9 92 34.0499 94.4232 29.7365 98.7365C25.4232 103.05 23 108.9 23 115C23 121.1 25.4232 126.95 29.7365 131.263C34.0499 135.577 39.9 138 46 138V138Z" fill="#09CF83"/>
<path fill-rule="evenodd" clip-rule="evenodd" d="M46 92H69V46H46C39.9 46 34.0499 48.4232 29.7365 52.7365C25.4232 57.0499 23 62.9 23 69C23 75.1 25.4232 80.9501 29.7365 85.2635C34.0499 89.5768 39.9 92 46 92V92Z" fill="#A259FF"/>
<path fill-rule="evenodd" clip-rule="evenodd" d="M46 46H69V0H46C39.9 0 34.0499 2.42321 29.7365 6.73654C25.4232 11.0499 23 16.9 23 23C23 29.1 25.4232 34.9501 29.7365 39.2635C34.0499 43.5768 39.9 46 46 46V46Z" fill="#F24E1E"/>
<path fill-rule="evenodd" clip-rule="evenodd" d="M92 46H69V0H92C98.1 0 103.95 2.42321 108.263 6.73654C112.577 11.0499 115 16.9 115 23C115 29.1 112.577 34.9501 108.263 39.2635C103.95 43.5768 98.1 46 92 46Z" fill="#FF7262"/>
</svg>
