<svg width="451" height="371" viewBox="0 0 451 371" fill="none" xmlns="http://www.w3.org/2000/svg">
<g clip-path="url(#clip0_12_2)">
<path d="M367.038 37.2872C369.92 25.5315 367.18 11.8214 357.87 4.08887C357.688 17.2503 352.858 29.9232 344.233 39.8652C340.893 43.6874 336.781 47.5907 336.619 52.6645C336.518 55.8215 338.059 58.8538 340.182 61.192C342.305 63.5301 344.984 65.2799 347.63 67.003L348.019 67.689C356.539 59.0932 364.157 49.043 367.038 37.2872Z" fill="#F0F0F0"/>
<path d="M357.683 4.26042C361.254 13.621 361.785 23.8688 359.201 33.5483C358.681 35.642 357.835 37.6407 356.694 39.4708C355.524 41.2177 353.908 42.6195 352.014 43.5304C350.264 44.4153 348.373 45.1178 346.869 46.4125C346.109 47.0867 345.5 47.914 345.082 48.8401C344.664 49.7661 344.447 50.7701 344.444 51.7861C344.372 54.3174 345.213 56.7239 346.117 59.0487C347.121 61.63 348.205 64.2951 347.973 67.1212C347.945 67.4636 348.477 67.4873 348.506 67.1454C348.909 62.2285 345.571 58.0753 345.041 53.3061C344.794 51.0808 345.216 48.7675 346.861 47.145C348.299 45.7262 350.25 45.0001 352.029 44.1194C353.89 43.2579 355.511 41.9536 356.752 40.3206C357.983 38.5545 358.905 36.5917 359.478 34.5163C360.841 29.8645 361.465 25.0272 361.327 20.1815C361.199 14.6503 360.127 9.18171 358.155 4.01228C358.033 3.69237 357.562 3.9426 357.683 4.26041V4.26042Z" fill="white"/>
<path d="M360.216 30.4806C361.899 30.6937 363.602 30.3017 365.022 29.3746C366.443 28.4475 367.487 27.0456 367.969 25.4193C368.066 25.0899 367.559 24.9245 367.462 25.2544C367.016 26.7696 366.043 28.0754 364.718 28.936C363.394 29.7966 361.806 30.1554 360.24 29.9476C359.9 29.9029 359.878 30.4361 360.216 30.4806V30.4806Z" fill="white"/>
<path d="M352.96 43.1987C350.811 40.4771 349.768 37.0456 350.036 33.5884C350.063 33.2459 349.53 33.2222 349.504 33.5643C349.231 37.1625 350.324 40.7313 352.566 43.5585C352.78 43.8278 353.173 43.4666 352.96 43.1987V43.1987Z" fill="white"/>
<path d="M360.557 14.9466C359.889 14.9998 359.218 14.8862 358.604 14.6159C357.991 14.3457 357.454 13.9272 357.042 13.3983C356.832 13.1263 356.44 13.4879 356.649 13.758C357.106 14.3404 357.7 14.8017 358.377 15.1018C359.054 15.4019 359.794 15.5316 360.533 15.4795C360.603 15.4804 360.671 15.4546 360.722 15.4074C360.774 15.3601 360.806 15.295 360.811 15.2251C360.814 15.1545 360.789 15.0857 360.741 15.0335C360.694 14.9814 360.627 14.9501 360.557 14.9466V14.9466Z" fill="white"/>
<path d="M317.61 11.6992C317.737 11.8727 317.863 12.0463 317.989 12.2241C319.677 14.5657 321.173 17.0407 322.461 19.6246C322.564 19.8229 322.665 20.0252 322.762 20.226C325.799 26.4844 327.648 33.2524 328.215 40.1859C328.439 42.9451 328.451 45.7173 328.254 48.4785C327.981 52.2918 327.382 56.4047 328.356 59.9802C328.453 60.3543 328.574 60.7221 328.717 61.0814L347.152 68.1101C347.202 68.105 347.251 68.1042 347.301 68.0992L348.024 68.4135C348.044 68.2718 348.062 68.1244 348.082 67.9827C348.094 67.9006 348.102 67.8169 348.114 67.7348C348.121 67.6795 348.127 67.6241 348.137 67.5746C348.139 67.5563 348.141 67.5378 348.142 67.5236C348.151 67.4741 348.154 67.4272 348.162 67.3819C348.264 66.5583 348.36 65.7325 348.451 64.9046C348.452 64.9004 348.452 64.9004 348.45 64.8946C349.201 58.5927 349.203 52.2239 348.454 45.9216C348.429 45.7339 348.406 45.542 348.373 45.351C347.986 42.5399 347.369 39.7651 346.53 37.0544C346.065 35.5716 345.526 34.1133 344.914 32.685C343.326 28.9976 341.168 25.5831 338.519 22.5665C333.237 16.5537 326.092 12.2973 318.213 11.7362C318.011 11.722 317.814 11.7092 317.61 11.6992Z" fill="#F0F0F0"/>
<path d="M317.563 11.949C326.048 17.2727 332.64 25.1353 336.404 34.4199C337.249 36.4043 337.777 38.5096 337.967 40.6583C338.085 42.7574 337.638 44.8498 336.674 46.7179C335.81 48.4779 334.722 50.178 334.301 52.1174C334.1 53.1133 334.112 54.1405 334.336 55.1315C334.56 56.1225 334.99 57.055 335.6 57.8679C337.065 59.9328 339.185 61.3478 341.307 62.6594C343.662 64.1158 346.132 65.5912 347.648 67.9874C347.831 68.2777 348.271 67.9757 348.088 67.6858C345.45 63.5168 340.285 62.2112 336.991 58.7222C335.454 57.0942 334.399 54.9931 334.735 52.707C335.03 50.7079 336.15 48.9538 337.04 47.1794C338.008 45.3707 338.517 43.3527 338.525 41.3015C338.445 39.15 337.999 37.0279 337.207 35.026C335.496 30.4906 333.083 26.2525 330.055 22.4669C326.624 18.1274 322.476 14.4069 317.79 11.4665C317.5 11.2846 317.274 11.7683 317.563 11.949V11.949Z" fill="white"/>
<path d="M335.368 31.359C336.839 30.516 337.964 29.1772 338.539 27.5817C339.115 25.9862 339.106 24.2378 338.512 22.6489C338.39 22.3278 337.886 22.5012 338.007 22.8227C338.563 24.3013 338.572 25.9299 338.033 27.4146C337.493 28.8992 336.441 30.1421 335.066 30.919C334.768 31.0882 335.071 31.5273 335.368 31.359Z" fill="white"/>
<path d="M337.23 45.8832C333.876 45.004 330.977 42.8928 329.11 39.9705C328.926 39.6809 328.486 39.9828 328.671 40.2721C330.618 43.3094 333.64 45.5003 337.132 46.4076C337.465 46.4939 337.561 45.969 337.23 45.8832V45.8832Z" fill="white"/>
<path d="M326.289 18.7508C325.788 19.1956 325.184 19.509 324.531 19.6626C323.879 19.8162 323.198 19.8054 322.551 19.631C322.22 19.5405 322.124 20.0655 322.453 20.1554C323.169 20.3447 323.921 20.3558 324.642 20.1877C325.363 20.0195 326.032 19.6773 326.591 19.1908C326.647 19.1494 326.686 19.088 326.699 19.0191C326.712 18.9502 326.698 18.879 326.66 18.82C326.62 18.7619 326.558 18.7221 326.489 18.7091C326.419 18.6962 326.348 18.7111 326.289 18.7508V18.7508Z" fill="white"/>
<path d="M293.234 277.246C231.427 277.246 181.143 226.951 181.143 165.131C181.143 103.31 231.427 53.0146 293.234 53.0146C299.769 53.0138 306.291 53.5791 312.728 54.7042C312.808 54.718 312.885 54.7476 312.954 54.7911C313.022 54.8347 313.082 54.8914 313.129 54.9581C313.176 55.0247 313.209 55.0999 313.227 55.1794C313.244 55.2589 313.246 55.3412 313.232 55.4214C313.218 55.5017 313.188 55.5783 313.145 55.6471C313.101 55.7158 313.044 55.7752 312.977 55.8219C312.911 55.8686 312.835 55.9017 312.756 55.9193C312.676 55.9368 312.594 55.9385 312.514 55.9243C306.148 54.8118 299.697 54.2528 293.234 54.2535C232.11 54.2535 182.381 103.993 182.381 165.131C182.381 226.269 232.11 276.008 293.234 276.008C354.359 276.008 404.087 226.269 404.087 165.131C404.115 137.497 393.798 110.854 375.17 90.4472C375.06 90.3256 375.003 90.1656 375.011 90.0021C375.019 89.8386 375.091 89.685 375.212 89.5747C375.333 89.4644 375.493 89.4064 375.656 89.4135C375.82 89.4206 375.974 89.4921 376.085 89.6124C394.922 110.247 405.354 137.188 405.326 165.131C405.326 226.951 355.042 277.246 293.234 277.246Z" fill="#E4E4E4"/>
<path d="M342.658 91.4665C354.907 91.4665 364.836 81.5352 364.836 69.2843C364.836 57.0334 354.907 47.1021 342.658 47.1021C330.41 47.1021 320.481 57.0334 320.481 69.2843C320.481 81.5352 330.41 91.4665 342.658 91.4665Z" fill="#6C63FF"/>
<path d="M339.633 80.8288C339.25 80.8288 338.872 80.7396 338.53 80.5682C338.187 80.3969 337.889 80.1481 337.66 79.8416L331.609 71.7726C331.415 71.5134 331.274 71.2184 331.193 70.9045C331.113 70.5906 331.095 70.2639 331.141 69.9432C331.187 69.6224 331.295 69.3138 331.46 69.035C331.625 68.7562 331.844 68.5126 332.103 68.3182C332.362 68.1238 332.657 67.9824 332.971 67.902C333.285 67.8215 333.611 67.8038 333.932 67.8496C334.253 67.8954 334.561 68.004 334.84 68.1691C335.119 68.3342 335.362 68.5526 335.556 68.8118L339.515 74.0903L349.681 58.8375C350.045 58.2952 350.609 57.9194 351.25 57.7923C351.89 57.6652 352.555 57.7973 353.098 58.1596C353.641 58.5218 354.019 59.0847 354.148 59.725C354.277 60.3652 354.147 61.0304 353.787 61.575L341.686 79.7299C341.467 80.0583 341.173 80.3293 340.827 80.5204C340.482 80.7114 340.096 80.8169 339.702 80.828C339.679 80.8284 339.656 80.8288 339.633 80.8288Z" fill="white"/>
<path d="M290.351 147.731L256.151 52.5684L257.018 52.2566L250.729 34.7536L249.861 35.0657L239.361 5.8478C238.969 4.75654 238.365 3.75323 237.586 2.89514C236.806 2.03705 235.865 1.341 234.816 0.846725C233.767 0.352448 232.631 0.0696245 231.473 0.0144102C230.315 -0.0408041 229.157 0.13267 228.066 0.524923L166.241 22.7531C165.15 23.1454 164.147 23.7487 163.289 24.5287C162.431 25.3086 161.735 26.25 161.241 27.299C160.747 28.348 160.464 29.4841 160.409 30.6424C160.353 31.8007 160.527 32.9585 160.919 34.0498L168.24 54.4223L166.87 54.9501L171.544 67.089L172.641 66.6664L173.611 69.3666L172.444 69.8163L177.117 81.9552L178.011 81.6108L211.909 175.933C212.299 177.026 212.901 178.031 213.681 178.89C214.46 179.749 215.402 180.446 216.451 180.941C217.5 181.435 218.637 181.718 219.796 181.772C220.955 181.826 222.113 181.651 223.203 181.256L285.029 159.028C287.23 158.234 289.027 156.598 290.025 154.48C291.023 152.362 291.14 149.935 290.351 147.731Z" fill="#3F3D56"/>
<path d="M219.952 178.12C219.081 178.118 218.232 177.848 217.521 177.347C216.809 176.846 216.269 176.137 215.973 175.318L164.446 31.937C164.066 30.881 164.122 29.7174 164.6 28.7023C165.078 27.6872 165.94 26.9036 166.996 26.524L180.15 21.7945L180.13 22.2549C180.097 23.054 180.26 23.8491 180.606 24.5702C180.952 25.2914 181.469 25.9164 182.114 26.3902C182.758 26.864 183.509 27.172 184.3 27.2872C185.091 27.4023 185.899 27.3211 186.651 27.0506L215.845 16.5545C216.55 16.2316 217.169 15.7473 217.651 15.1408C218.134 14.5343 218.468 13.8226 218.624 13.0633C218.78 12.3167 218.756 11.544 218.556 10.8082C218.356 10.0724 217.984 9.39442 217.472 8.82955L217.164 8.48686L230.752 3.60134C231.808 3.22332 232.97 3.27956 233.985 3.75775C235 4.23594 235.783 5.09704 236.164 6.15223L285.326 142.95C286.329 145.752 286.18 148.838 284.912 151.531C283.643 154.223 281.359 156.303 278.559 157.313L221.386 177.869C220.926 178.035 220.441 178.12 219.952 178.12V178.12Z" fill="white"/>
<path d="M214.915 76.4231C224.149 76.4231 231.636 68.9353 231.636 59.6986C231.636 50.4619 224.149 42.9741 214.915 42.9741C205.68 42.9741 198.194 50.4619 198.194 59.6986C198.194 68.9353 205.68 76.4231 214.915 76.4231Z" fill="#6C63FF"/>
<path d="M256.349 84.0199L198.444 104.839C198.263 104.904 198.071 104.933 197.879 104.925C197.686 104.916 197.498 104.869 197.324 104.787C197.15 104.706 196.994 104.59 196.864 104.448C196.735 104.306 196.634 104.139 196.569 103.958C196.504 103.777 196.476 103.585 196.485 103.393C196.494 103.201 196.541 103.012 196.623 102.838C196.706 102.664 196.821 102.508 196.964 102.379C197.106 102.25 197.273 102.15 197.454 102.085L255.359 81.2666C255.724 81.1365 256.125 81.1564 256.476 81.322C256.826 81.4875 257.096 81.7852 257.227 82.1497C257.358 82.5142 257.339 82.9158 257.174 83.2664C257.01 83.617 256.713 83.888 256.349 84.0199V84.0199Z" fill="#E6E6E6"/>
<path d="M239.153 97.2196L220.106 104.068C219.925 104.133 219.734 104.162 219.541 104.153C219.349 104.144 219.161 104.098 218.987 104.016C218.813 103.934 218.656 103.819 218.527 103.676C218.398 103.534 218.298 103.368 218.232 103.187C218.167 103.006 218.139 102.814 218.148 102.621C218.157 102.429 218.204 102.241 218.286 102.067C218.369 101.893 218.484 101.737 218.627 101.608C218.769 101.479 218.936 101.379 219.117 101.314L238.163 94.4661C238.528 94.3349 238.931 94.3541 239.282 94.5194C239.633 94.6848 239.903 94.9829 240.035 95.348C240.166 95.7131 240.147 96.1155 239.981 96.4665C239.816 96.8175 239.518 97.0884 239.153 97.2196V97.2196Z" fill="#E6E6E6"/>
<path d="M243.683 109.826L224.637 116.673C224.456 116.738 224.264 116.767 224.072 116.758C223.88 116.749 223.692 116.702 223.518 116.62C223.345 116.538 223.189 116.423 223.06 116.281C222.93 116.139 222.83 115.972 222.765 115.792C222.7 115.611 222.672 115.419 222.681 115.227C222.69 115.035 222.737 114.847 222.819 114.673C222.901 114.499 223.016 114.343 223.158 114.214C223.3 114.085 223.466 113.985 223.647 113.92L242.694 107.072C243.059 106.941 243.461 106.96 243.812 107.125C244.163 107.291 244.434 107.589 244.565 107.954C244.696 108.319 244.677 108.721 244.512 109.072C244.346 109.423 244.048 109.694 243.683 109.826V109.826Z" fill="#E6E6E6"/>
<path d="M246.004 116.282L226.957 123.13C226.776 123.196 226.584 123.225 226.392 123.216C226.2 123.207 226.011 123.161 225.837 123.079C225.663 122.997 225.507 122.882 225.377 122.739C225.248 122.597 225.147 122.431 225.082 122.249C225.017 122.068 224.989 121.876 224.998 121.684C225.007 121.492 225.054 121.303 225.136 121.129C225.219 120.955 225.334 120.799 225.477 120.67C225.62 120.541 225.786 120.441 225.967 120.377L245.014 113.529C245.195 113.463 245.387 113.434 245.579 113.443C245.771 113.452 245.96 113.498 246.134 113.58C246.308 113.662 246.464 113.777 246.594 113.92C246.723 114.062 246.823 114.228 246.888 114.409C246.953 114.591 246.982 114.783 246.973 114.975C246.964 115.167 246.917 115.355 246.834 115.529C246.752 115.703 246.636 115.859 246.494 115.989C246.351 116.118 246.185 116.217 246.004 116.282L246.004 116.282Z" fill="#E6E6E6"/>
<path d="M252.068 99.5937L211.658 114.123C211.477 114.188 211.285 114.217 211.093 114.208C210.901 114.2 210.712 114.153 210.538 114.071C210.364 113.989 210.208 113.874 210.078 113.732C209.949 113.589 209.849 113.423 209.784 113.242C209.718 113.061 209.69 112.869 209.699 112.677C209.708 112.484 209.755 112.296 209.837 112.122C209.92 111.948 210.035 111.792 210.178 111.663C210.321 111.534 210.487 111.434 210.668 111.369L251.079 96.8403C251.26 96.7748 251.452 96.7456 251.644 96.7545C251.836 96.7633 252.024 96.81 252.199 96.8918C252.373 96.9736 252.529 97.0889 252.658 97.2312C252.788 97.3735 252.888 97.5399 252.953 97.721C253.018 97.9021 253.047 98.0942 253.038 98.2863C253.028 98.4785 252.981 98.667 252.899 98.8409C252.817 99.0149 252.701 99.1709 252.559 99.3001C252.416 99.4292 252.249 99.529 252.068 99.5937V99.5937Z" fill="#E6E6E6"/>
<path d="M243.929 131.956L237.013 134.442C236.392 134.665 235.709 134.632 235.112 134.35C234.516 134.069 234.056 133.562 233.833 132.942C233.61 132.321 233.642 131.637 233.923 131.041C234.204 130.444 234.71 129.983 235.33 129.76L242.246 127.273C242.867 127.051 243.55 127.084 244.146 127.365C244.743 127.646 245.203 128.153 245.426 128.774C245.649 129.394 245.617 130.078 245.336 130.675C245.055 131.271 244.549 131.732 243.929 131.956V131.956Z" fill="#6C63FF"/>
<path d="M189.43 22.2579C189.961 22.2579 190.392 21.8272 190.392 21.2959C190.392 20.7647 189.961 20.334 189.43 20.334C188.899 20.334 188.469 20.7647 188.469 21.2959C188.469 21.8272 188.899 22.2579 189.43 22.2579Z" fill="white"/>
<path d="M78.8252 75.3986C89.6044 62.7075 107.094 54.7095 123.218 58.8561C108.696 69.6701 98.4656 85.2734 94.3378 102.905C92.7705 109.711 91.7358 117.444 86.2114 121.715C82.7741 124.373 78.1521 125.099 73.8344 124.617C69.5166 124.135 65.4069 122.559 61.3526 120.997L60.2747 121.116C62.9862 104.686 68.0461 88.0896 78.8252 75.3986Z" fill="#F0F0F0"/>
<path d="M123.178 59.2032C109.866 62.7686 98.0164 70.4387 89.3113 81.1238C87.3964 83.3908 85.8508 85.9455 84.7313 88.6939C83.7273 91.4064 83.4678 94.3383 83.9798 97.1851C84.4039 99.849 85.1461 102.525 84.9154 105.245C84.7766 106.636 84.3455 107.982 83.6502 109.195C82.955 110.407 82.0113 111.459 80.8811 112.281C78.1183 114.403 74.758 115.405 71.4379 116.271C67.7515 117.233 63.9073 118.173 60.9446 120.711C60.5856 121.018 60.1297 120.443 60.4881 120.136C65.6428 115.722 72.9634 116.096 78.7058 112.841C81.3853 111.323 83.6235 108.987 84.1056 105.845C84.5272 103.097 83.7642 100.337 83.3115 97.6436C82.7713 94.8738 82.9174 92.0138 83.737 89.3136C84.713 86.517 86.1576 83.907 88.0091 81.5953C92.0943 76.3243 96.9827 71.7286 102.495 67.9765C108.763 63.6593 115.723 60.4463 123.073 58.4766C123.529 58.3548 123.63 59.0823 123.178 59.2032H123.178Z" fill="white"/>
<path d="M91.9119 77.5182C90.3178 75.814 89.3813 73.5985 89.2696 71.2674C89.1579 68.9363 89.8782 66.6414 91.3021 64.7925C91.5914 64.4194 92.1847 64.8516 91.895 65.2253C90.5659 66.9445 89.8951 69.0823 90.0036 71.2528C90.112 73.4233 90.9926 75.4835 92.4864 77.0616C92.8106 77.4049 92.2342 77.8595 91.9119 77.5182H91.9119Z" fill="white"/>
<path d="M83.587 95.8629C88.3525 96.0642 93.0187 94.4617 96.6552 91.3747C97.0153 91.0686 97.4713 91.6436 97.1117 91.9494C93.3214 95.1547 88.4621 96.8125 83.5036 96.592C83.031 96.5707 83.117 95.8417 83.587 95.8629V95.8629Z" fill="white"/>
<path d="M108.951 64.614C109.43 65.402 110.098 66.0585 110.894 66.5246C111.689 66.9907 112.589 67.2518 113.51 67.2845C113.983 67.2999 113.896 68.0289 113.427 68.0137C112.409 67.9728 111.416 67.6832 110.536 67.1702C109.655 66.6572 108.914 65.9363 108.376 65.0706C108.319 64.9932 108.293 64.8969 108.304 64.8011C108.315 64.7053 108.362 64.6173 108.435 64.555C108.512 64.4949 108.609 64.4674 108.705 64.4785C108.802 64.4895 108.89 64.5382 108.951 64.614V64.614Z" fill="white"/>
<path d="M147.195 109.883C146.899 109.882 146.604 109.881 146.305 109.885C142.333 109.89 138.369 110.217 134.45 110.864C134.147 110.909 133.839 110.96 133.538 111.013C124.114 112.673 115.08 116.067 106.895 121.025C103.639 123.001 100.539 125.222 97.621 127.668C93.5908 131.046 89.4899 135.03 84.7197 136.827C84.2241 137.02 83.717 137.182 83.2014 137.313L60.5042 122.423C60.4696 122.363 60.4314 122.308 60.3965 122.248L59.4631 121.695C59.6048 121.559 59.7547 121.42 59.8964 121.283C59.9783 121.204 60.0652 121.127 60.1471 121.048C60.2033 120.996 60.2597 120.944 60.3075 120.894C60.3261 120.876 60.345 120.859 60.3602 120.847C60.4079 120.797 60.4576 120.755 60.5019 120.71C61.3377 119.932 62.1804 119.159 63.03 118.391C63.0334 118.386 63.0334 118.386 63.0419 118.384C69.5305 112.544 76.5635 107.194 84.1848 103.082C84.4141 102.959 84.6466 102.83 84.8863 102.713C88.3319 100.879 91.9216 99.3289 95.6195 98.0795C97.6466 97.4019 99.7068 96.8274 101.792 96.3582C107.182 95.1561 112.728 94.8095 118.225 95.3311C129.185 96.3725 139.69 100.908 146.668 109.242C146.846 109.455 147.02 109.665 147.195 109.883Z" fill="#F0F0F0"/>
<path d="M146.955 110.138C134.18 104.969 120.102 103.957 106.72 107.246C103.826 107.903 101.054 109.012 98.506 110.533C96.0716 112.094 94.0996 114.279 92.7948 116.86C91.5299 119.242 90.5118 121.826 88.69 123.859C87.7419 124.886 86.5876 125.701 85.3026 126.25C84.0176 126.8 82.631 127.071 81.2337 127.047C77.7506 127.078 74.4642 125.854 71.292 124.546C67.7698 123.094 64.1344 121.53 60.2416 121.772C59.7699 121.801 59.752 121.067 60.223 121.038C66.9958 120.618 72.6157 125.325 79.1597 126.184C82.2132 126.586 85.4061 126.069 87.6825 123.85C89.6732 121.91 90.7253 119.247 91.9852 116.823C93.2211 114.287 95.0593 112.091 97.3391 110.429C99.8017 108.783 102.526 107.569 105.396 106.839C111.831 105.09 118.5 104.365 125.16 104.688C132.763 105.016 140.254 106.641 147.309 109.495C147.746 109.672 147.389 110.314 146.955 110.138L146.955 110.138Z" fill="white"/>
<path d="M110.966 105.933C110.719 103.612 111.305 101.28 112.619 99.351C113.933 97.4225 115.89 96.024 118.139 95.4052C118.595 95.2815 118.808 95.9839 118.352 96.1077C116.256 96.6801 114.434 97.983 113.214 99.7814C111.994 101.58 111.457 103.755 111.7 105.915C111.752 106.384 111.018 106.4 110.966 105.933V105.933Z" fill="white"/>
<path d="M93.2771 115.567C96.9609 118.598 101.651 120.128 106.413 119.853C106.885 119.826 106.903 120.559 106.432 120.587C101.476 120.864 96.598 119.261 92.7716 116.099C92.4071 115.797 92.9146 115.267 93.2772 115.567H93.2771Z" fill="white"/>
<path d="M132.338 105.891C132.247 106.809 132.385 107.735 132.739 108.586C133.094 109.438 133.655 110.188 134.371 110.769C134.739 111.066 134.231 111.595 133.866 111.301C133.077 110.655 132.459 109.826 132.065 108.886C131.671 107.946 131.513 106.924 131.605 105.909C131.605 105.813 131.643 105.72 131.709 105.651C131.776 105.581 131.866 105.539 131.962 105.533C132.059 105.531 132.153 105.568 132.224 105.635C132.294 105.702 132.335 105.794 132.338 105.891V105.891Z" fill="white"/>
<path d="M402.322 319.322C414.075 322.204 427.782 319.464 435.513 310.152C422.355 309.97 409.685 305.138 399.745 296.512C395.923 293.171 392.021 289.058 386.948 288.896C383.792 288.795 380.76 290.336 378.423 292.46C376.085 294.583 374.336 297.262 372.613 299.91L371.927 300.299C380.521 308.82 390.569 316.44 402.322 319.322Z" fill="#F0F0F0"/>
<path d="M435.342 309.965C425.983 313.536 415.738 314.067 406.06 311.483C403.967 310.963 401.969 310.117 400.139 308.975C398.392 307.805 396.991 306.189 396.08 304.294C395.196 302.545 394.493 300.652 393.199 299.148C392.525 298.388 391.698 297.779 390.772 297.361C389.846 296.943 388.842 296.726 387.826 296.723C385.296 296.65 382.89 297.492 380.565 298.396C377.985 299.4 375.32 300.484 372.495 300.252C372.152 300.224 372.129 300.757 372.47 300.785C377.386 301.189 381.539 297.85 386.307 297.32C388.531 297.073 390.844 297.495 392.466 299.14C393.885 300.579 394.611 302.53 395.491 304.309C396.353 306.17 397.657 307.793 399.289 309.034C401.055 310.265 403.017 311.187 405.092 311.76C409.743 313.124 414.579 313.748 419.424 313.609C424.954 313.482 430.421 312.409 435.59 310.437C435.91 310.315 435.659 309.843 435.342 309.965H435.342Z" fill="white"/>
<path d="M409.127 312.498C408.914 314.181 409.306 315.885 410.233 317.306C411.16 318.726 412.561 319.771 414.187 320.253C414.517 320.35 414.682 319.842 414.352 319.746C412.837 319.299 411.532 318.326 410.672 317.002C409.811 315.677 409.452 314.088 409.66 312.523C409.705 312.182 409.172 312.16 409.127 312.498V312.498Z" fill="white"/>
<path d="M396.412 305.24C399.133 303.092 402.564 302.047 406.02 302.316C406.363 302.343 406.386 301.81 406.044 301.783C402.447 301.51 398.879 302.604 396.052 304.847C395.783 305.06 396.144 305.453 396.412 305.24H396.412Z" fill="white"/>
<path d="M424.658 312.839C424.605 312.171 424.719 311.5 424.989 310.886C425.259 310.273 425.677 309.736 426.206 309.324C426.478 309.114 426.117 308.721 425.847 308.93C425.264 309.388 424.803 309.981 424.503 310.659C424.203 311.336 424.073 312.076 424.125 312.815C424.125 312.885 424.15 312.953 424.198 313.005C424.245 313.056 424.31 313.088 424.38 313.094C424.45 313.096 424.519 313.071 424.571 313.024C424.623 312.976 424.655 312.91 424.658 312.839V312.839Z" fill="white"/>
<path d="M427.905 269.883C427.731 270.01 427.558 270.136 427.38 270.262C425.039 271.951 422.564 273.447 419.981 274.735C419.783 274.838 419.58 274.939 419.38 275.036C413.123 278.074 406.356 279.924 399.424 280.491C396.666 280.714 393.894 280.727 391.133 280.529C387.321 280.256 383.209 279.657 379.634 280.631C379.26 280.728 378.892 280.849 378.533 280.992L371.506 299.432C371.511 299.482 371.512 299.53 371.517 299.58L371.203 300.304C371.344 300.324 371.492 300.342 371.633 300.362C371.715 300.374 371.799 300.382 371.881 300.394C371.937 300.4 371.992 300.407 372.041 300.416C372.06 300.418 372.078 300.421 372.092 300.421C372.142 300.43 372.189 300.434 372.234 300.441C373.057 300.543 373.883 300.64 374.711 300.73C374.715 300.732 374.715 300.732 374.721 300.729C381.021 301.481 387.389 301.483 393.69 300.734C393.877 300.709 394.069 300.686 394.26 300.653C397.071 300.265 399.845 299.648 402.555 298.809C404.037 298.344 405.495 297.805 406.923 297.193C410.61 295.604 414.024 293.446 417.04 290.796C423.051 285.514 427.307 278.367 427.868 270.486C427.882 270.284 427.895 270.087 427.905 269.883Z" fill="#F0F0F0"/>
<path d="M427.655 269.836C422.332 278.323 414.472 284.917 405.189 288.681C403.205 289.527 401.1 290.054 398.952 290.245C396.853 290.362 394.761 289.916 392.893 288.951C391.134 288.087 389.434 286.999 387.495 286.578C386.499 286.377 385.473 286.389 384.482 286.613C383.491 286.836 382.559 287.267 381.746 287.877C379.681 289.343 378.267 291.463 376.955 293.585C375.499 295.941 374.024 298.411 371.629 299.927C371.338 300.111 371.64 300.551 371.93 300.367C376.098 297.73 377.404 292.563 380.892 289.268C382.519 287.731 384.62 286.675 386.906 287.012C388.904 287.307 390.658 288.427 392.432 289.318C394.24 290.285 396.258 290.795 398.309 290.803C400.46 290.723 402.581 290.277 404.583 289.485C409.117 287.773 413.355 285.359 417.139 282.331C421.478 278.899 425.198 274.75 428.137 270.063C428.319 269.773 427.836 269.547 427.655 269.836H427.655Z" fill="white"/>
<path d="M408.249 287.645C409.092 289.117 410.43 290.241 412.026 290.817C413.621 291.393 415.369 291.383 416.957 290.789C417.278 290.668 417.105 290.163 416.784 290.285C415.305 290.841 413.677 290.85 412.193 290.31C410.708 289.771 409.466 288.718 408.689 287.343C408.52 287.044 408.081 287.348 408.249 287.645Z" fill="white"/>
<path d="M393.728 289.507C394.607 286.152 396.718 283.253 399.639 281.386C399.929 281.201 399.627 280.761 399.338 280.946C396.301 282.894 394.111 285.916 393.204 289.409C393.117 289.742 393.642 289.838 393.728 289.507Z" fill="white"/>
<path d="M420.855 278.564C420.41 278.062 420.097 277.458 419.943 276.806C419.79 276.153 419.8 275.472 419.975 274.825C420.065 274.493 419.54 274.398 419.45 274.727C419.261 275.443 419.25 276.195 419.418 276.916C419.586 277.638 419.928 278.307 420.415 278.866C420.456 278.922 420.518 278.961 420.586 278.974C420.655 278.986 420.727 278.973 420.786 278.935C420.844 278.895 420.883 278.833 420.896 278.764C420.909 278.694 420.894 278.623 420.855 278.564V278.564Z" fill="white"/>
<path d="M449.417 206.331L431.495 236.497L432.176 236.857L426.107 248.365L424.844 247.696L420.856 254.405L421.847 254.975L415.344 266.236L414.217 265.585L355.737 364.025C354.204 366.601 351.711 368.463 348.806 369.203C345.901 369.942 342.821 369.499 340.243 367.97L231.526 303.358C228.95 301.824 227.088 299.331 226.348 296.425C225.609 293.52 226.052 290.439 227.581 287.86L321.261 130.167C322.795 127.591 325.288 125.728 328.193 124.989C331.098 124.249 334.177 124.692 336.756 126.221L445.472 190.833C448.047 192.368 449.908 194.861 450.648 197.767C451.387 200.672 450.945 203.752 449.417 206.331V206.331Z" fill="#3F3D56"/>
<path d="M344.117 361.883L235.018 297.044C234.224 296.571 233.65 295.802 233.422 294.906C233.194 294.011 233.331 293.061 233.802 292.266L328.104 133.524C328.576 132.73 329.345 132.156 330.24 131.928C331.136 131.7 332.085 131.837 332.88 132.308L441.979 197.147C442.773 197.62 443.347 198.389 443.575 199.284C443.803 200.18 443.666 201.129 443.195 201.924L348.893 360.667C348.42 361.461 347.652 362.035 346.757 362.263C345.861 362.491 344.912 362.354 344.117 361.883Z" fill="white"/>
<path d="M388.932 162.219C389.463 162.219 389.894 161.788 389.894 161.257C389.894 160.726 389.463 160.295 388.932 160.295C388.401 160.295 387.97 160.726 387.97 161.257C387.97 161.788 388.401 162.219 388.932 162.219Z" fill="white"/>
<path d="M382.98 275.932L291.909 221.807C291.624 221.639 291.374 221.416 291.175 221.151C290.976 220.886 290.831 220.584 290.748 220.263C290.666 219.942 290.648 219.608 290.695 219.28C290.742 218.951 290.853 218.636 291.023 218.351C291.192 218.066 291.416 217.817 291.681 217.619C291.947 217.42 292.249 217.276 292.571 217.195C292.892 217.114 293.226 217.097 293.554 217.146C293.882 217.194 294.198 217.307 294.482 217.477L385.553 271.602C385.838 271.77 386.088 271.993 386.287 272.258C386.486 272.523 386.631 272.825 386.714 273.146C386.796 273.467 386.814 273.801 386.767 274.129C386.72 274.458 386.609 274.773 386.44 275.058C386.27 275.343 386.046 275.592 385.781 275.79C385.515 275.989 385.213 276.133 384.891 276.214C384.57 276.295 384.236 276.312 383.908 276.263C383.58 276.215 383.265 276.102 382.98 275.932H382.98Z" fill="#E6E6E6"/>
<path d="M346.616 267.545L316.661 249.742C316.376 249.573 316.128 249.35 315.93 249.085C315.732 248.82 315.588 248.519 315.506 248.198C315.424 247.878 315.407 247.544 315.454 247.217C315.501 246.889 315.613 246.575 315.782 246.29C315.95 246.006 316.174 245.758 316.439 245.559C316.704 245.361 317.005 245.217 317.325 245.136C317.646 245.054 317.979 245.037 318.307 245.084C318.634 245.131 318.949 245.243 319.233 245.412L349.189 263.215C349.473 263.384 349.721 263.607 349.919 263.872C350.117 264.137 350.261 264.438 350.343 264.759C350.424 265.079 350.442 265.413 350.395 265.74C350.348 266.067 350.236 266.382 350.067 266.667C349.898 266.951 349.675 267.199 349.41 267.397C349.145 267.595 348.844 267.739 348.524 267.821C348.203 267.903 347.87 267.92 347.543 267.873C347.215 267.826 346.901 267.714 346.616 267.545V267.545Z" fill="#E6E6E6"/>
<path d="M334.839 287.371L304.883 269.568C304.309 269.227 303.894 268.671 303.729 268.024C303.564 267.377 303.664 266.691 304.005 266.116C304.346 265.542 304.901 265.127 305.548 264.962C306.195 264.797 306.881 264.896 307.455 265.237L337.411 283.041C337.695 283.209 337.944 283.433 338.142 283.698C338.34 283.963 338.484 284.264 338.565 284.584C338.647 284.905 338.664 285.238 338.617 285.566C338.57 285.893 338.459 286.208 338.29 286.492C338.121 286.777 337.897 287.025 337.633 287.223C337.368 287.421 337.066 287.565 336.746 287.647C336.426 287.728 336.092 287.746 335.765 287.699C335.438 287.651 335.123 287.54 334.839 287.371V287.371Z" fill="#E6E6E6"/>
<path d="M328.806 297.526L298.85 279.723C298.565 279.554 298.316 279.331 298.118 279.066C297.919 278.801 297.774 278.5 297.692 278.179C297.61 277.858 297.592 277.524 297.639 277.196C297.686 276.868 297.798 276.553 297.967 276.268C298.136 275.983 298.36 275.735 298.625 275.536C298.89 275.338 299.192 275.194 299.513 275.113C299.834 275.032 300.168 275.014 300.496 275.062C300.824 275.11 301.139 275.222 301.423 275.392L331.379 293.195C331.664 293.364 331.914 293.587 332.113 293.852C332.313 294.117 332.458 294.418 332.54 294.74C332.623 295.061 332.641 295.395 332.594 295.723C332.547 296.052 332.435 296.367 332.266 296.652C332.097 296.937 331.873 297.186 331.607 297.384C331.341 297.583 331.039 297.727 330.717 297.808C330.396 297.889 330.062 297.906 329.734 297.857C329.406 297.809 329.091 297.696 328.806 297.526V297.526Z" fill="#E6E6E6"/>
<path d="M357.61 287.304L294.054 249.532C293.483 249.189 293.071 248.634 292.908 247.988C292.745 247.342 292.844 246.658 293.184 246.085C293.525 245.512 294.078 245.098 294.723 244.932C295.368 244.766 296.053 244.863 296.627 245.201L360.183 282.973C360.468 283.142 360.718 283.365 360.917 283.63C361.117 283.895 361.262 284.196 361.344 284.518C361.427 284.839 361.445 285.173 361.398 285.501C361.351 285.829 361.239 286.145 361.07 286.43C360.9 286.715 360.677 286.964 360.411 287.162C360.145 287.361 359.843 287.505 359.521 287.586C359.2 287.667 358.866 287.684 358.538 287.635C358.21 287.587 357.894 287.474 357.61 287.304V287.304Z" fill="#E6E6E6"/>
<path d="M345.496 335.577L334.62 329.112C333.645 328.531 332.94 327.587 332.661 326.487C332.381 325.387 332.55 324.221 333.13 323.245C333.71 322.269 334.653 321.564 335.752 321.283C336.852 321.002 338.018 321.17 338.994 321.749L349.871 328.213C350.847 328.793 351.553 329.737 351.833 330.838C352.113 331.939 351.945 333.106 351.365 334.082C350.785 335.059 349.84 335.765 348.74 336.045C347.639 336.325 346.473 336.157 345.496 335.577Z" fill="#6C63FF"/>
<path d="M365.79 230.621C378.103 230.621 388.084 220.637 388.084 208.322C388.084 196.006 378.103 186.022 365.79 186.022C353.477 186.022 343.495 196.006 343.495 208.322C343.495 220.637 353.477 230.621 365.79 230.621Z" fill="#6C63FF"/>
<path d="M0.262695 298.938H301.969V124.23C301.968 122.921 301.447 121.666 300.522 120.741C299.597 119.815 298.342 119.294 297.033 119.293H5.19906C3.89033 119.294 2.63562 119.815 1.7102 120.741C0.784774 121.666 0.264207 122.921 0.262695 124.23V298.938Z" fill="#CACACA"/>
<path d="M292.648 126.122H9.58423V286.857H292.648V126.122Z" fill="white"/>
<path d="M4.05869e-10 294.21V315.77C-9.75882e-06 316.663 0.175981 317.548 0.517925 318.374C0.859869 319.2 1.36107 319.95 1.99291 320.582C2.62475 321.214 3.37486 321.715 4.2004 322.057C5.02594 322.399 5.91075 322.575 6.80431 322.575H118.162V365.123H116.683C116.567 365.123 116.452 365.146 116.344 365.19C116.237 365.235 116.14 365.3 116.058 365.382C115.975 365.464 115.91 365.561 115.866 365.669C115.822 365.776 115.799 365.891 115.799 366.007V368.966C115.799 369.082 115.822 369.197 115.866 369.305C115.91 369.412 115.975 369.509 116.058 369.591C116.14 369.674 116.237 369.739 116.344 369.783C116.452 369.828 116.567 369.85 116.683 369.85H185.812C185.928 369.85 186.043 369.828 186.15 369.783C186.257 369.739 186.355 369.674 186.437 369.591C186.519 369.509 186.584 369.412 186.629 369.305C186.673 369.197 186.696 369.082 186.696 368.966V366.007C186.696 365.891 186.673 365.776 186.629 365.669C186.584 365.561 186.519 365.464 186.437 365.382C186.355 365.3 186.257 365.235 186.15 365.19C186.043 365.146 185.928 365.123 185.812 365.123H184.333V322.575H295.69C296.584 322.575 297.469 322.399 298.294 322.057C299.12 321.715 299.87 321.214 300.502 320.582C301.133 319.95 301.635 319.2 301.977 318.374C302.319 317.548 302.495 316.663 302.495 315.77V294.21L4.05869e-10 294.21Z" fill="#3F3D56"/>
<path d="M251.688 179.877H117.64C116.795 179.877 115.985 179.542 115.387 178.944C114.79 178.346 114.454 177.536 114.454 176.69C114.454 175.845 114.79 175.035 115.387 174.437C115.985 173.839 116.795 173.503 117.64 173.503H251.688C252.533 173.503 253.344 173.839 253.941 174.437C254.539 175.035 254.874 175.845 254.874 176.69C254.874 177.536 254.539 178.346 253.941 178.944C253.344 179.542 252.533 179.877 251.688 179.877V179.877Z" fill="#E6E6E6"/>
<path d="M206.71 194.264H162.618C161.773 194.264 160.962 193.928 160.365 193.33C159.767 192.733 159.432 191.922 159.432 191.077C159.432 190.231 159.767 189.421 160.365 188.823C160.962 188.225 161.773 187.89 162.618 187.89H206.71C207.555 187.89 208.366 188.225 208.963 188.823C209.561 189.421 209.897 190.231 209.897 191.077C209.897 191.922 209.561 192.733 208.963 193.33C208.366 193.928 207.555 194.264 206.71 194.264V194.264Z" fill="#E6E6E6"/>
<path d="M206.71 223.446H162.618C161.773 223.446 160.962 223.11 160.365 222.513C159.767 221.915 159.432 221.104 159.432 220.259C159.432 219.414 159.767 218.603 160.365 218.005C160.962 217.408 161.773 217.072 162.618 217.072H206.71C207.555 217.072 208.366 217.408 208.963 218.005C209.561 218.603 209.897 219.414 209.897 220.259C209.897 221.104 209.561 221.915 208.963 222.513C208.366 223.11 207.555 223.446 206.71 223.446Z" fill="#E6E6E6"/>
<path d="M206.71 238.392H162.618C162.2 238.392 161.785 238.31 161.399 238.15C161.012 237.99 160.661 237.755 160.365 237.459C160.069 237.163 159.835 236.812 159.674 236.425C159.514 236.038 159.432 235.624 159.432 235.206C159.432 234.787 159.514 234.373 159.674 233.986C159.835 233.599 160.069 233.248 160.365 232.952C160.661 232.656 161.012 232.421 161.399 232.261C161.785 232.101 162.2 232.019 162.618 232.019H206.71C207.129 232.019 207.543 232.101 207.93 232.261C208.316 232.421 208.667 232.656 208.963 232.952C209.259 233.248 209.494 233.599 209.654 233.986C209.814 234.373 209.897 234.787 209.897 235.206C209.897 235.624 209.814 236.038 209.654 236.425C209.494 236.812 209.259 237.163 208.963 237.459C208.667 237.755 208.316 237.99 207.93 238.15C207.543 238.31 207.129 238.392 206.71 238.392V238.392Z" fill="#E6E6E6"/>
<path d="M231.439 208.65H137.89C137.045 208.65 136.234 208.314 135.637 207.717C135.039 207.119 134.704 206.309 134.704 205.463C134.704 204.618 135.039 203.807 135.637 203.21C136.234 202.612 137.045 202.276 137.89 202.276H231.439C232.284 202.276 233.094 202.612 233.692 203.21C234.289 203.807 234.625 204.618 234.625 205.463C234.625 206.309 234.289 207.119 233.692 207.717C233.094 208.314 232.284 208.65 231.439 208.65V208.65Z" fill="#E6E6E6"/>
<path d="M249.456 268.995H233.447C232.01 268.995 230.632 268.424 229.616 267.408C228.599 266.391 228.029 265.013 228.029 263.576C228.029 262.138 228.599 260.76 229.616 259.744C230.632 258.727 232.01 258.156 233.447 258.156H249.456C250.893 258.156 252.272 258.727 253.288 259.744C254.304 260.76 254.875 262.138 254.875 263.576C254.875 265.013 254.304 266.391 253.288 267.408C252.272 268.424 250.893 268.995 249.456 268.995V268.995Z" fill="#6C63FF"/>
<path d="M75.4882 229.662C90.8793 229.662 103.356 217.182 103.356 201.788C103.356 186.393 90.8793 173.914 75.4882 173.914C60.0971 173.914 47.6201 186.393 47.6201 201.788C47.6201 217.182 60.0971 229.662 75.4882 229.662Z" fill="#6C63FF"/>
<path d="M401.601 371H0.737445C0.54225 370.999 0.355246 370.921 0.217422 370.783C0.0795977 370.645 0.00219727 370.458 0.00219727 370.262C0.00219727 370.067 0.0795977 369.88 0.217422 369.742C0.355246 369.603 0.54225 369.525 0.737445 369.525H401.601C401.796 369.525 401.983 369.603 402.121 369.742C402.259 369.88 402.336 370.067 402.336 370.262C402.336 370.458 402.259 370.645 402.121 370.783C401.983 370.921 401.796 370.999 401.601 371V371Z" fill="#CACACA"/>
<path d="M150.985 122.707C151.565 122.707 152.035 122.237 152.035 121.657C152.035 121.076 151.565 120.606 150.985 120.606C150.405 120.606 149.934 121.076 149.934 121.657C149.934 122.237 150.405 122.707 150.985 122.707Z" fill="white"/>
</g>
<defs>
<clipPath id="clip0_12_2">
<rect width="451" height="371" fill="white"/>
</clipPath>
</defs>
</svg>
