<svg width="107" height="121" viewBox="0 0 107 121" fill="none" xmlns="http://www.w3.org/2000/svg">
<path d="M9.69019 108.679L0 0H106.476L96.7725 108.662L53.1731 120.75L9.69019 108.679Z" fill="#E44F26"/>
<path d="M53.2383 111.513L88.4714 101.745L96.76 8.88818H53.2383V111.513Z" fill="#F1662A"/>
<path d="M53.2383 49.1929H35.6002L34.384 35.5438H53.2383V22.2139H19.8164L20.1355 25.7932L23.4087 62.5228H53.2383V49.1929V49.1929Z" fill="#EBEBEB"/>
<path d="M53.2383 83.8093L53.178 83.8266L38.3343 79.8203L37.3856 69.1899H24.0039L25.8712 90.1142L53.178 97.6956L53.2383 97.6783V83.8093Z" fill="#EBEBEB"/>
<path d="M53.1914 22.2139V35.5438H85.3885L85.6559 32.5509L86.264 25.7932L86.5831 22.2139H53.1914V22.2139Z" fill="white"/>
<path d="M53.1914 49.1929V62.5228H69.6048L68.0609 79.8116L53.1914 83.8223V97.6913L80.5197 90.1142L80.7181 87.8631L83.849 52.7723L84.1767 49.1929H53.1914V49.1929Z" fill="white"/>
</svg>
