<svg width="127" height="136" viewBox="0 0 127 136" fill="none" xmlns="http://www.w3.org/2000/svg">
<g clip-path="url(#clip0_311_689)">
<path d="M0 0H127V135.861H0V0Z" fill="#F7DF1E"/>
<path d="M33.3931 113.535L43.1116 107.243C44.9868 110.799 46.6924 113.808 50.7836 113.808C54.7053 113.808 57.1783 112.167 57.1783 105.784V62.373H69.1128V105.964C69.1128 119.188 61.8669 125.207 51.2951 125.207C41.7478 125.207 36.2059 119.917 33.3926 113.534" fill="black"/>
<path d="M75.5962 112.167L85.3137 106.148C87.872 110.617 91.1969 113.9 97.0785 113.9C102.024 113.9 105.177 111.255 105.177 107.607C105.177 103.23 101.938 101.679 96.4817 99.1262L93.4987 97.757C84.888 93.8367 79.1765 88.9118 79.1765 78.5152C79.1765 68.9392 85.9963 61.6431 96.6529 61.6431C104.24 61.6431 109.696 64.4707 113.617 71.8575L104.324 78.2419C102.278 74.3205 100.063 72.7704 96.6524 72.7704C93.1569 72.7704 90.9404 75.1415 90.9404 78.2419C90.9404 82.072 93.1569 83.6233 98.2717 85.9945L101.255 87.3621C111.4 92.0137 117.112 96.7556 117.112 107.425C117.112 118.917 108.672 125.209 97.334 125.209C86.2518 125.209 79.0907 119.555 75.5957 112.167" fill="black"/>
</g>
<defs>
<clipPath id="clip0_311_689">
<rect width="127" height="135.861" fill="white"/>
</clipPath>
</defs>
</svg>
