<svg width="93" height="93" viewBox="0 0 93 93" fill="none" xmlns="http://www.w3.org/2000/svg">
<circle cx="46.5" cy="46.5" r="46.5" fill="#A15BDD"/>
<g clip-path="url(#clip0_20_16)">
<path d="M53.568 66.4H38.251C38.608 66.4 38.896 69.911 38.896 74.236C38.896 78.564 38.609 82.075 38.251 82.075H53.568C53.212 82.075 52.923 78.564 52.923 74.236C52.925 69.911 53.212 66.4 53.568 66.4Z" fill="#BFBEBE"/>
<path d="M43.615 66.4H38.252C38.609 66.4 38.897 69.911 38.897 74.236C38.897 78.564 38.61 82.075 38.252 82.075H43.615C43.972 82.075 44.26 78.564 44.26 74.236C44.26 69.911 43.972 66.4 43.615 66.4Z" fill="#AEAEAE"/>
<path d="M77.7839 66.31C77.7839 70.357 74.7339 73.636 70.9779 73.636H20.8479C17.0879 73.636 14.0389 70.357 14.0389 66.31V29.19C14.0389 25.15 17.0879 21.869 20.8479 21.869H70.9779C74.7339 21.869 77.7839 25.147 77.7839 29.19V66.31" fill="#D1D2D2"/>
<path d="M26.93 66.31V29.19C26.93 25.15 29.979 21.869 33.738 21.869H20.844C17.084 21.869 14.035 25.147 14.035 29.19V66.31C14.035 70.357 17.084 73.636 20.844 73.636H33.738C29.979 73.636 26.93 70.356 26.93 66.309" fill="#C6C5C5"/>
<path d="M77.7841 55.941C77.7841 59.981 74.7341 63.261 70.9781 63.261H20.8481C17.0881 63.261 14.0391 59.984 14.0391 55.941V29.163C14.0391 25.116 17.0881 21.838 20.8481 21.838H70.9781C74.7341 21.838 77.7841 25.116 77.7841 29.163V55.941Z" fill="#243438"/>
<path d="M14.036 54.05H77.785V65.417H14.036V54.05Z" fill="#243438"/>
<path d="M72.75 25.244H19.069C18.626 25.244 18.257 25.489 18.257 25.784V60.675C18.257 60.971 18.626 61.215 19.069 61.215H72.75C72.991 61.215 73.174 61.164 73.307 61.074L73.327 61.054C73.327 61.054 73.343 61.042 73.347 61.031C73.4125 60.997 73.4678 60.946 73.507 60.8834C73.5462 60.8208 73.5679 60.7489 73.57 60.675V25.791C73.566 25.496 73.193 25.251 72.75 25.251" fill="#58C5E8"/>
<path d="M46.698 48.559C55.674 53.937 64.443 57.599 73.566 59.814V25.784C73.566 25.489 73.193 25.244 72.75 25.244H23.49C28.55 34.779 37.258 42.904 46.7 48.559H46.698ZM46.77 54.27C35.94 48.371 25.097 40.2 18.257 30.11V60.674C18.257 60.97 18.626 61.214 19.069 61.214H62.882C57.53 59.489 52.193 57.228 46.772 54.274" fill="#28A6DE"/>
<path d="M57.721 81.727C57.721 82.429 57.383 83 56.968 83H34.858C34.439 83 34.101 82.429 34.101 81.727C34.101 81.024 34.439 80.454 34.858 80.454H56.968C57.383 80.451 57.721 81.023 57.721 81.727Z" fill="#D1D2D2"/>
<path d="M41.937 81.727C41.937 81.024 42.275 80.454 42.69 80.454H34.565C34.149 80.454 33.812 81.024 33.812 81.727C33.812 82.429 34.15 83 34.565 83H42.69C42.275 83 41.937 82.429 41.937 81.727Z" fill="#C6C5C5"/>
</g>
<defs>
<clipPath id="clip0_20_16">
<rect width="64" height="64" fill="white" transform="translate(14 19)"/>
</clipPath>
</defs>
</svg>
