<svg width="138" height="123" viewBox="0 0 138 123" fill="none" xmlns="http://www.w3.org/2000/svg">
<path d="M113.463 39.7957C111.995 39.2918 110.514 38.825 109.022 38.3957C109.272 37.3715 109.503 36.3597 109.708 35.3656C113.071 19.0423 110.872 5.89186 103.364 1.56211C96.1644 -2.58867 84.3908 1.73946 72.5001 12.0878C71.3283 13.1095 70.1824 14.1607 69.0636 15.2403C68.3147 14.5224 67.5525 13.8184 66.7774 13.1288C54.3154 2.06398 41.8242 -2.59945 34.3237 1.7427C27.131 5.90641 25.0012 18.2687 28.0286 33.7387C28.3297 35.2709 28.6698 36.7951 29.0485 38.31C27.2803 38.8124 25.5742 39.3472 23.9414 39.9164C9.33063 45.0105 0 52.9935 0 61.2741C0 69.8263 10.0169 78.4044 25.2346 83.6058C26.4683 84.0258 27.7123 84.4149 28.9654 84.7729C28.5585 86.4044 28.1972 88.0471 27.8819 89.6988C24.9958 104.9 27.2496 116.971 34.4229 121.108C41.8318 125.38 54.2669 120.989 66.3748 110.405C67.3566 109.544 68.3168 108.659 69.2544 107.751C70.466 108.92 71.7099 110.055 72.9847 111.155C84.7137 121.247 96.2971 125.322 103.463 121.174C110.865 116.889 113.271 103.922 110.148 88.1463C109.902 86.9104 109.626 85.6806 109.32 84.4581C110.194 84.1993 111.051 83.933 111.886 83.6559C127.707 78.4146 138 69.9406 138 61.2741C138 52.9633 128.368 44.9265 113.463 39.7957V39.7957ZM110.032 78.0605C109.278 78.3101 108.504 78.551 107.714 78.7855C105.968 73.2563 103.611 67.3773 100.727 61.3026C103.479 55.3729 105.745 49.5689 107.443 44.0758C108.855 44.4844 110.224 44.9151 111.545 45.3696C124.315 49.7662 132.105 56.2656 132.105 61.2741C132.105 66.6086 123.692 73.534 110.032 78.0605V78.0605ZM104.365 89.2913C105.746 96.2668 105.942 102.574 105.028 107.505C104.206 111.935 102.553 114.889 100.509 116.072C96.1607 118.589 86.8602 115.317 76.8299 106.686C75.6441 105.663 74.487 104.608 73.3599 103.521C77.2487 99.2688 81.1348 94.3251 84.9277 88.8342C91.5991 88.2423 97.9018 87.2741 103.618 85.9529C103.899 87.0887 104.149 88.2024 104.365 89.2913V89.2913ZM47.0472 115.637C42.7983 117.137 39.4141 117.18 37.3684 116.001C33.0154 113.49 31.2058 103.799 33.6742 90.7985C33.9676 89.2623 34.3035 87.7346 34.6817 86.217C40.3343 87.4676 46.5912 88.3668 53.2782 88.9091C57.097 94.2819 61.0952 99.2203 65.1247 103.545C64.2683 104.373 63.3917 105.181 62.4957 105.966C57.1412 110.646 51.7759 113.967 47.0472 115.637V115.637ZM27.1418 78.0276C20.4127 75.7274 14.8555 72.7383 11.0465 69.4764C7.62342 66.5456 5.89573 63.6352 5.89573 61.2741C5.89573 56.2489 13.3871 49.8395 25.882 45.4833C27.3984 44.955 28.9854 44.4564 30.6322 43.9885C32.3594 49.6055 34.6245 55.4786 37.3581 61.4175C34.5889 67.4442 32.2915 73.4111 30.5476 79.0944C29.4038 78.7667 28.2682 78.411 27.1418 78.0276V78.0276ZM33.8143 32.6062C31.2209 19.3522 32.9432 9.35426 37.2778 6.84492C41.8943 4.17225 52.1031 7.98288 62.8633 17.5372C63.565 18.1617 64.2553 18.7988 64.9339 19.4482C60.9243 23.7537 56.9627 28.6554 53.178 33.9964C46.6877 34.598 40.475 35.564 34.7631 36.8583C34.4111 35.4493 34.0948 34.0317 33.8143 32.6067V32.6062ZM93.3414 47.3053C91.9922 44.9749 90.593 42.6739 89.1448 40.4037C93.5478 40.9606 97.7665 41.6996 101.728 42.6031C100.539 46.4153 99.0565 50.4006 97.3116 54.4867C96.0361 52.0667 94.7124 49.6725 93.3414 47.3053V47.3053ZM69.0663 23.6615C71.7853 26.6075 74.5087 29.8963 77.1873 33.4649C71.7535 33.2083 66.3107 33.2072 60.8769 33.4617C63.5582 29.926 66.3047 26.6415 69.0663 23.6615ZM44.6355 47.3458C43.2815 49.6938 41.9826 52.0732 40.7396 54.4819C39.0233 50.4103 37.5543 46.4067 36.3549 42.5406C40.2922 41.6597 44.491 40.9395 48.866 40.3929C47.4016 42.6769 45.991 44.995 44.6355 47.3452V47.3458ZM48.9916 82.5746C44.4716 82.07 40.2098 81.387 36.2735 80.5299C37.4918 76.5948 38.9931 72.506 40.7467 68.3471C41.9945 70.7576 43.2989 73.1384 44.6586 75.4875C46.057 77.9025 47.5049 80.2679 48.9916 82.5746ZM69.2291 99.3017C66.4346 96.2873 63.6477 92.9521 60.9259 89.3652C63.5684 89.4687 66.2621 89.5215 69 89.5215C71.8128 89.5215 74.5933 89.4584 77.3301 89.3366C74.6429 92.9882 71.9298 96.3282 69.2291 99.3017ZM97.3671 68.1347C99.2118 72.3394 100.766 76.4066 102.001 80.2744C97.9999 81.1876 93.6799 81.9229 89.1281 82.4689C90.5866 80.1566 91.9991 77.8156 93.3645 75.4471C94.7528 73.0396 96.0873 70.6016 97.3671 68.1347V68.1347ZM88.258 72.5017C86.1676 76.133 83.9597 79.6954 81.6378 83.1832C77.4318 83.4811 73.2165 83.629 69 83.6268C64.7053 83.6268 60.5281 83.4931 56.5056 83.2322C54.1231 79.7525 51.873 76.1839 49.7603 72.534H49.7609C47.6581 68.9035 45.6939 65.1944 43.8727 61.4148C45.6893 57.6343 47.6475 53.9234 49.7431 50.2901L49.7425 50.2907C51.8373 46.6564 54.0694 43.1031 56.4339 39.6382C60.5378 39.3277 64.7463 39.166 68.9995 39.166H69C73.2726 39.166 77.4865 39.3294 81.5893 39.642C83.9299 43.1016 86.1477 46.6428 88.2386 50.2589C90.3412 53.8842 92.3253 57.5769 94.1877 61.3312C92.3444 65.1239 90.3666 68.8498 88.258 72.5017V72.5017ZM100.419 6.66919C105.04 9.33431 106.837 20.0816 103.934 34.1754C103.749 35.0745 103.54 35.9904 103.314 36.9192C97.5881 35.5974 91.3711 34.6147 84.8619 34.004C81.0702 28.6042 77.1409 23.6949 73.1966 19.445C74.2303 18.4485 75.2887 17.4779 76.3706 16.534C86.5589 7.66807 96.0809 4.1674 100.419 6.66919V6.66919ZM69 48.9511C75.8057 48.9511 81.323 54.4684 81.323 61.2741C81.323 68.0797 75.8057 73.597 69 73.597C62.1943 73.597 56.677 68.0797 56.677 61.2741C56.677 54.4684 62.1943 48.9511 69 48.9511V48.9511Z" fill="#00D8FF"/>
</svg>
