<svg width="138" height="132" viewBox="0 0 138 132" fill="none" xmlns="http://www.w3.org/2000/svg">
<path d="M95.6194 91.4967C100.712 90.9695 104.575 86.5794 104.4 81.3106C104.224 76.0423 99.8338 71.8274 94.5656 71.8274H94.2146C88.7701 72.0031 84.5557 76.569 84.7314 82.013C84.9072 84.6474 85.9605 86.9303 87.541 88.5108C81.5704 100.277 72.4387 108.883 58.7411 116.083C49.4336 121 39.7753 122.756 30.1169 121.527C22.2142 120.473 16.0678 116.961 12.2038 111.165C6.58464 102.56 6.05798 93.2524 10.7996 83.945C14.1364 77.2714 19.4041 72.354 22.7409 69.8954C22.0385 67.6124 20.9846 63.749 20.458 60.9394C-5.00574 79.3791 -2.37134 104.317 5.35558 116.083C11.1505 124.864 22.9166 130.308 35.9118 130.308C39.4238 130.308 42.9358 129.957 46.4483 129.079C68.9267 124.688 85.961 111.341 95.6194 91.4967ZM126.527 69.7202C113.18 54.0901 93.5122 45.485 71.0339 45.485H68.2243C66.6437 42.3239 63.3069 40.2162 59.6192 40.2162H59.2678C53.8243 40.3919 49.6099 44.9578 49.7851 50.4023C49.9608 55.6706 54.351 59.8855 59.6192 59.8855H59.9701C63.8336 59.7098 67.1704 57.2511 68.5752 53.9143H71.7363C85.0829 53.9143 97.7266 57.7778 109.142 65.3295C117.922 71.125 124.244 78.6767 127.756 87.8084C130.741 95.1844 130.566 102.385 127.405 108.532C122.488 117.839 114.234 122.932 103.346 122.932C96.3218 122.932 89.6488 120.824 86.1362 119.244C84.2048 121 80.6922 123.81 78.2336 125.567C85.7853 129.078 93.5122 131.01 100.888 131.01C117.746 131.01 130.215 121.703 134.956 112.395C140.049 102.209 139.697 84.6474 126.527 69.7202ZM37.3166 94.4815C37.4923 99.7503 41.8824 103.965 47.1507 103.965H47.5022C52.9462 103.789 57.1606 99.2231 56.9848 93.7791C56.8096 88.5103 52.419 84.2959 47.1507 84.2959H46.7998C46.4483 84.2959 45.9211 84.2959 45.5707 84.4711C38.3705 72.5292 35.3851 59.5341 36.439 45.4845C37.1409 34.9474 40.6534 25.8152 46.7998 18.2634C51.8923 11.7656 61.7264 8.60451 68.4 8.42932C87.0144 8.07785 94.9165 31.2592 95.4437 40.5671C97.7266 41.0938 101.59 42.3234 104.224 43.2015C102.117 14.752 84.5557 0 67.6976 0C51.8923 0 37.3166 11.4152 31.5211 28.2744C23.4433 50.7533 28.7115 72.354 38.5457 89.389C37.6681 90.618 37.1409 92.5495 37.3166 94.4815Z" fill="#764ABC"/>
</svg>
